<?xml version="1.0" encoding="utf-8"?>
<!-- Generator: Adobe Illustrator 26.3.1, SVG Export Plug-In . SVG Version: 6.00 Build 0)  -->
<svg version="1.1" id="Camada_1" xmlns="http://www.w3.org/2000/svg" xmlns:xlink="http://www.w3.org/1999/xlink" x="0px" y="0px"
	 viewBox="0 0 924 703.6" style="enable-background:new 0 0 924 703.6;" xml:space="preserve">
<style type="text/css">
	.st0{clip-path:url(#SVGID_00000056398049412225873740000017323952554041776292_);}
	.st1{fill:#C79B66;}
	.st2{fill:#1D1E1C;}
	.st3{fill:#604A35;}
	.st4{fill:#7F4E24;}
	.st5{fill:#1C2C70;}
	.st6{fill:#14194A;}
	.st7{fill:#0E102F;}
	.st8{fill:#211E1C;}
	.st9{fill:#FFFFFF;}
	.st10{fill:#D2C629;}
	.st11{fill:none;stroke:#1D1E1C;stroke-width:4.0693;stroke-miterlimit:10;}
	.st12{fill:#FFFFFF;stroke:#1D1E1C;stroke-width:2.0347;stroke-miterlimit:10;}
	.st13{fill:#11100D;}
	.st14{display:none;}
	.st15{display:inline;fill:#413E6F;}
	.st16{display:inline;}
	.st17{fill:none;stroke:#2D547D;stroke-width:2.0347;stroke-miterlimit:10;}
	.st18{fill:none;stroke:#2D547D;stroke-width:2.0347;stroke-miterlimit:10;stroke-dasharray:4.0317,4.0317;}
	.st19{fill:none;stroke:#2D547D;stroke-width:2.0347;stroke-miterlimit:10;stroke-dasharray:4.193,4.193;}
	.st20{fill:#1F1F41;stroke:#14194A;stroke-width:2.0347;stroke-miterlimit:10;}
	.st21{fill:none;stroke:#06070D;stroke-width:4.0693;stroke-miterlimit:10;}
	.st22{fill:none;stroke:#14194A;stroke-width:2.0347;stroke-miterlimit:10;}
</style>
<g>
	<defs>
		<rect id="SVGID_1_" x="-55.2" y="-1.7" width="1066" height="638.1"/>
	</defs>
	<clipPath id="SVGID_00000052805816100780341620000013368278359651809412_">
		<use xlink:href="#SVGID_1_"  style="overflow:visible;"/>
	</clipPath>
	<g style="clip-path:url(#SVGID_00000052805816100780341620000013368278359651809412_);">
		<g id="XMLID_225_">
			<path id="XMLID_243_" class="st1" d="M465.7,962.2c0,0-12.1-28.4,1.3-45.4c13.4-17,34.2-27.5,47-27.5c12.7,0,57.3-7.1,78.5,4.2
				c21.2,11.3,27.6,31.1,29,32.5c1.4,1.4,2.9,44.7-21.9,45.3c-26.7,0.6-24.8-6.4-24.8-6.4s-6.5,8.5-18,8.5
				c-14.2,0-19.5-10.6-19.5-10.6s0.5,10.6-17.8,10.6c-16.7,0-19.9-10.3-19.9-10.3s1.6,7.9-14.6,7.4
				C469.9,970.3,465.7,962.2,465.7,962.2z"/>
			<path id="XMLID_242_" class="st1" d="M505.5,794.5c0,0,5.7,88.5,0,96.3c-5.7,7.7,111.1,33.9,111.1,33.9s2.8-26.2,0-50.2
				c-2.8-24.1-8.5-69.3-9.2-79.9C606.7,783.9,505.5,794.5,505.5,794.5z"/>
			<g id="XMLID_239_">
				<path class="st2" d="M485.9,948.9c-5.5-4.1-8.8-10.8-8.4-17.8c0.4-7.4,7-13.5,14.2-13.5c-2.4,2.4-4.4,4.5-5.8,6.8
					C481.3,932.1,484.4,940.5,485.9,948.9L485.9,948.9z"/>
			</g>
			<g id="XMLID_236_">
				<path class="st2" d="M517.7,950.5c-5.4-3.5-8.7-9.3-9.2-15.8c-0.6-6.7,4.2-13.8,11.1-14.3c-1.9,2.5-3.4,4.8-4.1,7
					C513,935.2,516.3,942.6,517.7,950.5L517.7,950.5z"/>
			</g>
			<g id="XMLID_233_">
				<path class="st2" d="M558.5,950.5c1.5-5.8,4.1-11,6-16.5c1.2-3.8,2.5-7,0.6-10.4c-0.6-1.1-1.7-2.1-2.9-3.2
					c6.2-0.8,9.9,5,9.2,10.7C570.4,939.2,565.4,946.3,558.5,950.5L558.5,950.5z"/>
			</g>
			<g id="XMLID_230_">
				<path class="st2" d="M599.9,945.2c1.9-3.8,4.7-7.2,4.2-11.1c-0.7-3.4-2.7-5.6-4.5-9.1c5.3,0.1,10.6,4.3,10.7,10
					C610.3,940.5,605.3,945,599.9,945.2L599.9,945.2z"/>
			</g>
			<path id="XMLID_229_" class="st3" d="M513.1,889.5c0,0,37.3-4.9,55.4-0.6c18.2,4.3,28.9,8.8,35.9,13c20.2,12.2-27.6-1-40.3-6.8
				c-12.5-5.7-28.7-3.8-43.9-2.7C499.1,893.8,513.1,889.5,513.1,889.5z"/>
			<path id="XMLID_228_" class="st2" d="M511.5,857.2c0,0-1,4.8,0,10.1c1,5.3-3.9,6.4,4.1,8.8c7.9,2.5,20.4,1.9,22.1,3.2
				c2.5,1.9-6.4-13.1-10.6-13.1C522.8,866.3,515.1,860.9,511.5,857.2z"/>
			<path id="XMLID_227_" class="st2" d="M583,857.1c0,0-7.1-2.1-14.3,0c-7.2,2.1,0.6,6.4,0,8c-0.6,1.6,15.3,1.6,22,4
				c6.6,2.4,3.2-9.6,9-9.8C605.5,858.9,583,857.1,583,857.1z"/>
			<path id="XMLID_226_" class="st2" d="M511,901.5c0,0,4.4,8,9,7.7c4.6-0.3,23.1,1.1,23.7,4.2c0.5,3.2,18.9-4,13.4-6
				c-5.5-2-11.3-10.2-20.2-7.3C527.9,903,515.5,903.6,511,901.5z"/>
		</g>
		<g id="XMLID_206_">
			<path id="XMLID_224_" class="st1" d="M302.9,963.8c0,0-12.1-28.4,1.3-45.4c13.4-17,34.2-27.5,47-27.5c12.7,0,57.3-7.1,78.5,4.2
				c21.2,11.3,28.5,29.4,29,32.5c0.3,2,2.9,44.7-21.9,45.3c-26.7,0.6-24.8-6.4-24.8-6.4s-6.5,8.5-18,8.5
				c-14.2,0-19.5-10.6-19.5-10.6s0.5,10.6-17.8,10.6c-16.7,0-19.9-10.3-19.9-10.3s1.6,7.9-14.6,7.4
				C307.2,971.9,302.9,963.8,302.9,963.8z"/>
			<path id="XMLID_223_" class="st1" d="M342.8,796.1c0,0,5.7,88.5,0,96.3c-5.7,7.7,111.1,33.9,111.1,33.9s2.8-26.2,0-50.2
				c-2.8-24.1-8.5-69.3-9.2-79.9C444,785.5,342.8,796.1,342.8,796.1z"/>
			<g id="XMLID_220_">
				<path class="st2" d="M323.1,950.5c-5.5-4.1-8.8-10.8-8.4-17.8c0.4-7.4,7-13.5,14.2-13.5c-2.4,2.4-4.4,4.5-5.8,6.8
					C318.6,933.7,321.6,942.1,323.1,950.5L323.1,950.5z"/>
			</g>
			<g id="XMLID_217_">
				<path class="st2" d="M354.9,952.1c-5.4-3.5-8.7-9.3-9.2-15.8c-0.6-6.7,4.2-13.8,11.1-14.3c-1.9,2.5-3.4,4.8-4.1,7
					C350.2,936.8,353.6,944.2,354.9,952.1L354.9,952.1z"/>
			</g>
			<g id="XMLID_214_">
				<path class="st2" d="M395.8,952.1c1.5-5.8,4.1-11,6-16.5c1.2-3.8,2.5-7,0.6-10.4c-0.6-1.1-1.7-2.1-2.9-3.2
					c6.2-0.8,9.9,5,9.2,10.7C407.6,940.8,402.6,947.9,395.8,952.1L395.8,952.1z"/>
			</g>
			<g id="XMLID_211_">
				<path class="st2" d="M437.2,946.8c1.9-3.8,4.7-7.2,4.2-11.1c-0.7-3.4-2.7-5.6-4.5-9.1c5.3,0.1,10.6,4.3,10.7,10
					C447.6,942.1,442.5,946.6,437.2,946.8L437.2,946.8z"/>
			</g>
			<path id="XMLID_210_" class="st4" d="M350.4,891.1c0,0,37.3-4.9,55.4-0.6c18.2,4.3,28.9,8.8,35.9,13c20.2,12.2-27.6-1-40.3-6.8
				c-12.5-5.7-28.7-3.8-43.9-2.7C336.3,895.4,350.4,891.1,350.4,891.1z"/>
			<path id="XMLID_209_" class="st2" d="M348.8,858.8c0,0-1,4.8,0,10.1c1,5.3-3.9,6.4,4.1,8.8c7.9,2.5,20.4,1.9,22.1,3.2
				c2.5,1.9-6.4-13.1-10.6-13.1C360.1,867.9,352.3,862.5,348.8,858.8z"/>
			<path id="XMLID_208_" class="st2" d="M420.2,858.7c0,0-7.1-2.1-14.3,0c-7.2,2.1,0.6,6.4,0,8c-0.6,1.6,15.3,1.6,22,4
				c6.6,2.4,3.2-9.6,9-9.8C442.7,860.5,420.2,858.7,420.2,858.7z"/>
			<path id="XMLID_207_" class="st2" d="M348.2,903.1c0,0,4.4,8,9,7.7c4.6-0.3,23.1,1.1,23.7,4.2c0.5,3.2,18.9-4,13.4-6
				c-5.5-2-11.3-10.2-20.2-7.3C365.2,904.6,352.7,905.2,348.2,903.1z"/>
		</g>
		<path id="XMLID_167_" class="st5" d="M271,341.4c0,0-24.7,35-18.6,89.5s29.7,73.5,29.7,73.5s-1.6,3-5.7,17
			c-4.1,14-4.7,22-5.4,32.1c-0.7,10.1-9.4,18.9-10.1,33.3c-0.7,14.4,0.7,18.4-4.7,27.1c-5.4,8.7-25,41.2-21.5,52.3
			c1.8,5.8,2.4,5.4,2.6,6.1s-3.2,7.3-2.9,13.8c0.3,6.5,2.8,26.2,2.8,26.2s-5,23.6-5,26.2c0,2.5-4,36.2-4,36.2v30.7l4,38.8
			c0,0-2.9,25.8-4.8,47.3c-0.1,1.4,5.8,8.9,5.7,10.3c-0.8,13,2.3,17.6,3.1,18.4c18.6,17.4,102.1,21.1,117.3,13.1
			c6-3.2,6.7-12.7,7.8-22.2l10.6-10l144.1,2.7l9.4,10.4c-0.9,10.4,1.8,24.2,5.1,26.2c33.2,19.8,111.7,2,111.7,2s4.8-10.3,3.6-27.9
			c0,0,8.5-8.3,8.8-10.5c2.7-24.7,5.7-53,5.7-57.7c0-8.6-1-16.6-1-16.6s3.7-58.7,5.7-87.2c2-28.5-4.4-49.6-4.7-57.4
			c-0.3-7.7,3-20.5,2.7-25.5c-0.3-5-4.7-29.9-7-34.6c-2.3-4.7-13.7-48-20.8-60.6c-7.1-12.6,0-26.7-2.5-28.7c-2.5-2-7-13.6-9.6-19.1
			c-2.5-5.5-14.6-14.9-14.6-14.9s-2-25.5,0.5-31.7c2.5-6.2-4-11.4-4-12.3c0-0.9,5.5-13.6,9.6-19.6c4-6,11.6-26.9,14.1-28
			c2.5-1.1,3-12.3,2.5-14.7c-0.5-2.4-22-62.8-33.4-63.8C586.5,330.4,498.9,275.5,271,341.4z"/>
		<path id="XMLID_166_" class="st6" d="M491.9,801.3h-46h-0.7h-46c0,42-18.6,41.2-18.6,41.2v19.7h64.6h0.7h64.6v-19.7
			C510.6,842.5,491.9,843.3,491.9,801.3z"/>
		<path id="XMLID_152_" class="st5" d="M486.8,807.3h-40.9h-0.6h-40.9c0,34.2-16.6,39.5-16.6,39.5v10h57.4h0.6h57.4v-10
			C503.4,846.8,486.8,841.5,486.8,807.3z"/>
		<path id="XMLID_148_" class="st7" d="M418.2,544.6c0,3.4-2.7,6.1-6.1,6.1c-3.4,0-6.1-2.7-6.1-6.1c0-3.4,2.7-6.1,6.1-6.1
			C415.5,538.5,418.2,541.2,418.2,544.6z"/>
		<path id="XMLID_131_" class="st8" d="M600.6,457.4c0,0-7.3-2.1-8.8,0c-1.5,2.1-8.6,11.2-10.3,10.2c-1.8-1-3.5,6-5.5,5.5
			c-2-0.5,7.8-4.7,9.1-3.4c1.3,1.3,2.8-1.7,4.3-5C590.8,461.6,595.5,457.4,600.6,457.4z"/>
		<path id="XMLID_147_" class="st7" d="M495.1,543.6c0,3.4-2.7,6.1-6.1,6.1c-3.4,0-6.1-2.7-6.1-6.1c0-3.4,2.7-6.1,6.1-6.1
			C492.4,537.5,495.1,540.2,495.1,543.6z"/>
		<g id="XMLID_22_">
			<path id="XMLID_69_" class="st1" d="M710.5,0c0,0-69.3,104-106.9,115.9c0,0-141.3-30.1-194.2-22.6C356.3,98,225,160.5,225,160.5
				c-39.3-3-130.5-88.4-130.5-88.4c-16.8,111.6,71.1,221.4,71.1,221.4c-18.2,55.6,46.8,222.9,34.2,187.1c-12.6-35.8-4.2-40,0-33.7
				c0,0,15,28.5,18,61.2c3.2,34.3,40.9,90.4,40.9,90.4c4.8-108.2,35.6-109.7,35.6-109.7c4.2,14.7,46.9,31.3,118.5,28.8
				c29.4-1.1,37.5,30.2,43.1,29.2c5.7-0.3,13-30.9,44.3-37c70.3-13.7,110.1-43.1,110.9-58.4c0,0,30.3-5.5,59.7,98.7
				c0,0,24-63.2,19.2-97.4c-4.5-32.5,3.6-63.7,3.6-63.7c2.7-7.1,11.8-4.9,7.7,32.8c-4.1,37.7,21-139.9-9.4-189.9
				C691.8,231.8,752.4,104.8,710.5,0z"/>
			<path id="XMLID_68_" class="st2" d="M410.3,353.7c0,0-3.2,28.4,27.6,24.5c30.8-3.9,44.4,0.4,44.2-31.6
				C482.1,335.9,415.8,345,410.3,353.7z"/>
			<path id="XMLID_67_" class="st2" d="M318,437.1c0,0-0.1-0.5-0.1-1.4c0-0.5,0.1-1,0.2-1.6c0.1-0.6,0.2-1.3,0.6-2
				c0.3-0.7,0.6-1.5,0.9-2.3c0.4-0.7,0.9-1.5,1.4-2.3c0.5-0.8,1.1-1.6,1.8-2.3c0.7-0.7,1.4-1.4,2-2.2c1.4-1.4,3.1-2.5,4.6-3.6
				c1.5-1.1,3-1.8,4.4-2.5c2.7-1.3,4.5-1.8,4.5-1.8s-1.4,1.5-3.5,3.3c-0.5,0.5-1.1,1-1.8,1.5c-0.7,0.5-1.2,1.1-1.9,1.7
				c-0.7,0.6-1.3,1.2-2,1.8c-0.7,0.6-1.5,1.2-2.1,1.9c-0.7,0.6-1.3,1.3-2,1.9c-0.7,0.6-1.3,1.2-1.8,1.9c-0.5,0.7-1.1,1.3-1.7,1.9
				c-0.4,0.6-0.9,1.2-1.3,1.8c-0.4,0.6-0.8,1.1-1,1.6c-0.3,0.5-0.6,0.9-0.7,1.3C318.1,436.6,318,437.1,318,437.1z"/>
			<path id="XMLID_66_" class="st2" d="M583.1,397.7c0,0-0.2-0.4-0.7-0.9c-0.4-0.5-1.1-1.2-1.9-2c-0.4-0.4-0.9-0.8-1.3-1.2
				c-0.5-0.4-1.1-0.8-1.6-1.2c-0.5-0.5-1.1-0.9-1.7-1.3c-0.6-0.4-1.2-0.8-1.9-1.2c-1.2-0.9-2.6-1.5-3.8-2.4
				c-0.6-0.4-1.2-0.8-1.8-1.1c-0.6-0.3-1.1-0.6-1.6-1c-2-1.2-3.3-2.3-3.3-2.3s1.6,0.1,4,0.7c1.2,0.3,2.6,0.6,3.9,1.3
				c1.4,0.6,2.9,1.3,4.2,2.2c0.7,0.5,1.3,1,2,1.5c0.7,0.4,1.2,1,1.8,1.6c0.5,0.6,1,1.1,1.5,1.7c0.4,0.6,0.8,1.2,1.1,1.7
				c0.6,1.1,0.9,2.1,1.1,2.8C583.1,397.3,583.1,397.7,583.1,397.7z"/>
			<path id="XMLID_65_" class="st2" d="M414.3,357.3c0,0-2.1-0.8-3.6-3c-0.8-1.1-1.5-2.5-1.9-4.1c-0.2-1.6,0.1-3.4,0.2-5.2
				c0.2-1.7,0.5-3.4,1.1-5c0.5-1.5,1.1-2.9,1.8-3.9c0.6-1.1,1.2-1.9,1.7-2.5c0.5-0.6,0.7-0.9,0.7-0.9l0.6,0.3c0,0-0.1,0.4-0.3,1.1
				c-0.2,0.7-0.4,1.6-0.6,2.7c-0.1,0.6-0.2,1.2-0.2,1.8c0,0.6-0.1,1.3-0.1,2c0,1.4,0.1,2.8,0.3,4.2c0.2,1.4,0.9,2.7,1.2,4
				c0.3,1.3,0.2,2.5,0.2,3.7c-0.1,2.3-0.6,4.3-0.6,4.3L414.3,357.3z"/>
			<path id="XMLID_64_" class="st2" d="M478.9,349c0,0-1.1-1.7-1.9-3.7c-0.4-1-0.8-2.2-1-3.4c-0.1-1.2,0.1-2.6-0.1-4
				c-0.2-1.4-0.6-2.7-1-3.9c-0.2-0.7-0.5-1.2-0.7-1.8c-0.2-0.6-0.5-1.1-0.7-1.6c-0.5-1-1-1.7-1.4-2.3c-0.4-0.6-0.6-0.9-0.6-0.9
				l0.4-0.5c0,0,0.3,0.2,0.9,0.6c0.6,0.3,1.4,0.9,2.4,1.7c1,0.7,2,1.8,2.9,3c1,1.2,1.8,2.7,2.5,4.2c0.7,1.5,1.6,3.1,1.8,4.7
				c0.2,1.6,0,3.1-0.5,4.3c-0.8,2.5-2.5,3.8-2.5,3.8L478.9,349z"/>
			<path id="XMLID_63_" class="st4" d="M269.8,246.9c0,0,47.9-120,108.8,2.1c0,0,6.6,35.5,2.9,40c-18.1,22.1-43.2,25.3-107.7,0.8
				C269.9,288.3,265.8,253.8,269.8,246.9z"/>
			<path id="XMLID_62_" class="st2" d="M269.8,247.7c0,0,0.7-2.4,2.3-6.6c1.6-4.1,4.1-10,7.9-16.6c3.7-6.7,8.8-14.2,15.9-21
				c3.6-3.3,7.7-6.5,12.5-8.8c4.8-2.4,10.4-3.6,15.9-3.4c5.6,0.2,11,1.9,15.6,4.6c4.7,2.4,8.6,5.9,12.1,9.2c3.4,3.5,6.5,7,9,10.6
				c2.7,3.5,4.8,7.1,6.8,10.4c2,3.2,3.4,6.4,4.9,9.2c1.5,2.7,2.4,5.2,3.3,7.3c1.7,4.1,2.7,6.4,2.7,6.4s-1.4-2.1-3.8-5.8
				c-1.2-1.8-2.5-4.1-4.3-6.6c-1.8-2.5-3.6-5.4-5.8-8.4c-2.3-3-4.6-6.3-7.4-9.4c-2.7-3.3-5.8-6.4-9.1-9.5c-3.4-3-7.1-5.8-11.2-7.9
				c-4-2.3-8.5-3.5-13-3.7c-4.5-0.2-9,0.6-13.1,2.6c-4.1,1.9-8,4.5-11.4,7.4c-3.4,3-6.5,6.1-9.2,9.3c-2.7,3.2-5.2,6.4-7.3,9.4
				c-4.3,6.1-7.6,11.4-9.8,15.2C270.9,245.5,269.8,247.7,269.8,247.7z"/>
			<path id="XMLID_61_" class="st2" d="M277.6,276.5c7.8-13.1,15.5-34.2,48.3-36.9c32.8-2.7,67.8,48,53.2,70.4
				c-14.6,22.4-84.3,24.2-101.5-10.7C270.8,285.5,274.7,281.4,277.6,276.5z"/>
			<g id="XMLID_52_">
				<path id="XMLID_60_" class="st9" d="M286.1,284.2c6.8-11.5,13.6-30.2,42.6-32.6c29-2.4,59.8,42.3,46.9,62
					c-12.9,19.7-74.3,21.3-89.5-9.5C280.1,292.1,283.5,288.5,286.1,284.2z"/>
				
					<ellipse id="XMLID_57_" transform="matrix(1.922055e-02 -0.9998 0.9998 1.922055e-02 39.5467 618.2373)" class="st10" cx="334.9" cy="289" rx="32.5" ry="32.5"/>
				<path id="XMLID_56_" class="st2" d="M360.5,289c0,14.1-11.5,25.6-25.6,25.6s-25.6-11.5-25.6-25.6c0-14.1,11.5-25.6,25.6-25.6
					S360.5,274.8,360.5,289z"/>
				<path id="XMLID_55_" class="st9" d="M353.1,278.2c0,6-4.8,10.8-10.8,10.8c-6,0-10.8-4.8-10.8-10.8c0-6,4.8-10.8,10.8-10.8
					C348.2,267.4,353.1,272.2,353.1,278.2z"/>
				<path id="XMLID_54_" class="st9" d="M349.2,298.6c0,2-1.6,3.5-3.5,3.5s-3.5-1.6-3.5-3.5c0-2,1.6-3.5,3.5-3.5
					S349.2,296.6,349.2,298.6z"/>
				<path id="XMLID_53_" class="st9" d="M333.6,295c0,1.2-0.9,2.1-2.1,2.1c-1.2,0-2.1-0.9-2.1-2.1c0-1.2,0.9-2.1,2.1-2.1
					C332.7,292.9,333.6,293.9,333.6,295z"/>
			</g>
			<path id="XMLID_51_" class="st2" d="M261.8,398c0,0-4.5,0.2-12.3,0.8c-3.9,0.4-8.6,0.8-14.1,1.4c-5.4,0.6-11.5,1.4-18.1,2.4
				c-6.6,1-13.8,2.2-21.3,3.6c-7.5,1.6-15.4,3.1-23.5,5.2c-8.1,1.8-16.4,4.3-24.8,6.8c-8.3,2.7-16.8,5.6-25,9l-6.2,2.6l-6,2.8
				c-4.1,1.8-7.9,3.9-11.8,5.9c-3.9,1.9-7.6,4.3-11.4,6.4c-3.7,2.2-7.2,4.6-10.7,6.8c-3.5,2.4-6.7,4.8-10,7.1
				c-3.2,2.4-6.2,5-9.2,7.3c-5.8,5-11.3,9.8-15.9,14.7c-1.2,1.2-2.3,2.3-3.5,3.5c-1.1,1.2-2.1,2.4-3.1,3.5c-2,2.3-3.9,4.5-5.7,6.5
				c-3.3,4.3-6.4,8-8.7,11.2c-4.4,6.5-7,10.2-7,10.2l-0.5-0.3c0,0,2.4-3.8,6.6-10.4c2.2-3.3,5.1-7.1,8.3-11.5
				c1.7-2.1,3.6-4.4,5.6-6.8c1-1.2,2-2.4,3-3.7c1.1-1.2,2.2-2.4,3.4-3.6c4.5-5.1,9.8-10.1,15.6-15.4c3-2.5,6-5.1,9.1-7.7
				c3.3-2.5,6.5-5,10-7.5c3.5-2.4,7-4.9,10.7-7.2c3.8-2.2,7.4-4.7,11.4-6.8c3.9-2.2,7.8-4.4,11.9-6.3l6.1-3l6.2-2.8
				c8.2-3.8,16.7-7,25.1-10c8.4-2.9,16.9-5.4,25.1-7.5c8.3-2,16.3-3.6,24-4.8c7.7-1.2,15-2.1,21.8-2.7c6.8-0.6,13-0.8,18.5-1
				c5.5-0.2,10.3-0.1,14.3,0c7.9,0.2,12.4,0.8,12.4,0.8L261.8,398z"/>
			<path id="XMLID_50_" class="st2" d="M251.7,426.6c0,0-3.3,1-8.9,2.9c-2.8,1-6.2,2.2-10,3.6c-3.9,1.5-8.2,3.2-12.8,5.1
				c-4.7,1.8-9.7,4.1-15,6.4c-5.2,2.4-10.8,4.9-16.5,7.7c-5.6,2.8-11.6,5.5-17.4,8.7c-2.9,1.6-5.9,3.2-8.8,4.7
				c-2.9,1.7-5.7,3.5-8.6,5.2c-5.8,3.4-11.3,7.3-16.8,11.1c-5.6,3.6-10.5,7.9-15.5,11.8c-5.1,3.8-9.4,8.1-13.8,11.9
				c-2.1,2-4.3,3.8-6.3,5.7c-1.9,2-3.7,3.9-5.5,5.7c-3.5,3.7-6.9,6.9-9.6,10c-2.6,3.2-5,5.9-6.9,8.2c-3.8,4.6-6,7.2-6,7.2l-0.5-0.4
				c0,0,2.1-2.7,5.6-7.4c1.8-2.4,4-5.2,6.5-8.6c2.6-3.3,5.8-6.7,9.1-10.5c1.7-1.9,3.5-3.9,5.3-6c1.9-2,4-3.9,6.1-6
				c4.2-4.1,8.5-8.6,13.5-12.6c4.9-4.1,9.8-8.6,15.3-12.5c5.4-4,10.8-8.2,16.6-11.9c2.8-1.9,5.7-3.8,8.5-5.7
				c2.9-1.7,5.8-3.5,8.7-5.2c5.7-3.6,11.7-6.4,17.4-9.5c2.9-1.4,5.8-2.6,8.6-3.9c2.8-1.2,5.6-2.5,8.3-3.5c5.5-2.1,10.7-4.1,15.6-5.5
				c4.9-1.6,9.5-2.7,13.5-3.8c4-1,7.6-1.8,10.5-2.3c5.9-1.1,9.3-1.4,9.3-1.4L251.7,426.6z"/>
			<path id="XMLID_49_" class="st2" d="M277,448.9c0,0-3.1,1.7-8.4,4.8c-2.6,1.6-5.9,3.5-9.5,5.8c-3.7,2.3-7.7,4.9-12.1,7.8
				c-4.4,2.9-9.1,6.1-14.1,9.6c-4.9,3.6-10.1,7.2-15.3,11.3c-5.3,3.9-10.6,8.2-15.9,12.5c-5.3,4.5-10.6,9.1-15.6,14
				c-5.1,4.9-9.9,10-14.5,15.2c-4.6,5.2-8.8,10.5-12.8,15.8c-1.9,2.7-3.8,5.3-5.6,7.9c-1.7,2.7-3.4,5.3-5.1,7.8
				c-3.1,5.2-6,10.1-8.4,14.8c-2.6,4.6-4.4,9.1-6.2,13c-1.6,4-3,7.5-4.1,10.4c-2,5.9-3.1,9.2-3.1,9.2l-0.6-0.2c0,0,1-3.4,2.7-9.4
				c0.9-3,2.2-6.5,3.6-10.6c1.7-4,3.3-8.6,5.7-13.4c2.2-4.9,4.9-10,7.8-15.4c1.6-2.6,3.1-5.4,4.8-8.1c1.8-2.7,3.6-5.4,5.4-8.2
				c3.8-5.5,8-11,12.5-16.5c4.5-5.4,9.2-10.8,14.2-15.9c4.9-5.2,10.1-10.1,15.3-14.9c5.2-4.7,10.5-9.2,15.9-13.3
				c5.4-4,10.7-7.8,15.8-11.1c5.2-3.3,10.2-6.3,14.9-8.9c4.7-2.6,9.1-4.7,13-6.7c3.9-1.9,7.4-3.4,10.3-4.6c5.8-2.4,9.2-3.4,9.2-3.4
				L277,448.9z"/>
			<path id="XMLID_48_" class="st2" d="M639.2,342.7c0,0,4.2-1.7,11.8-3.9c3.8-1.2,8.4-2.4,13.8-3.7c5.4-1.2,11.4-2.6,18.1-3.8
				c6.7-1.2,14-2.2,21.7-3c7.7-0.8,16-1.3,24.4-1.5c8.5-0.1,17.3,0.2,26.2,0.8c8.9,0.8,17.9,1.7,26.9,3.2l6.7,1.1l6.6,1.4
				c4.4,0.8,8.8,2,13.1,3.1c4.3,1,8.5,2.5,12.7,3.7c4.2,1.3,8.2,2.8,12.2,4.2c4,1.5,7.8,3.2,11.6,4.7c3.7,1.7,7.3,3.4,10.8,5.1
				c6.9,3.6,13.3,7.2,19,10.9c1.4,0.9,2.8,1.8,4.2,2.6c1.3,0.9,2.6,1.9,3.9,2.8c2.5,1.8,4.9,3.5,7.1,5.1c4.2,3.5,8,6.4,11,9
				c5.8,5.3,9.1,8.4,9.1,8.4l-0.4,0.5c0,0-3.4-2.9-9.4-8c-3-2.5-6.9-5.3-11.2-8.6c-2.3-1.5-4.7-3.1-7.2-4.8
				c-1.3-0.8-2.6-1.7-3.9-2.6c-1.4-0.8-2.8-1.6-4.3-2.5c-5.7-3.5-12.2-6.8-19.1-10.1c-3.5-1.5-7.1-3.2-10.8-4.7
				c-3.8-1.4-7.6-2.9-11.5-4.3c-4-1.2-8-2.7-12.1-3.8c-4.2-1.1-8.3-2.4-12.6-3.3c-4.3-0.9-8.6-2-13-2.7l-6.6-1.2l-6.6-0.9
				c-8.8-1.2-17.7-1.8-26.5-2.3c-8.8-0.3-17.4-0.5-25.7-0.2c-8.3,0-16.4,0.6-24.1,1c-7.6,0.6-14.9,1.2-21.5,1.9
				c-6.7,0.8-12.8,1.5-18.1,2.3c-5.4,0.8-10.1,1.6-13.9,2.3c-7.7,1.4-12.1,2.4-12.1,2.4L639.2,342.7z"/>
			<path id="XMLID_47_" class="st2" d="M656.5,367.7c0,0,3.4-0.6,9.3-1c3-0.3,6.6-0.4,10.8-0.5c4.2,0,8.9-0.1,14,0.2
				c5.1,0.1,10.7,0.7,16.5,1.3c2.9,0.2,5.9,0.8,9,1.3c3,0.5,6.2,0.9,9.3,1.6c6.3,1.5,12.8,2.7,19.2,4.7c3.2,0.9,6.5,1.9,9.8,2.8
				c3.2,1.1,6.5,2.2,9.7,3.3c6.5,2,12.9,4.7,19.1,7.2c6.3,2.3,12.2,5.5,18,8.1c5.9,2.6,11.1,5.9,16.3,8.7c2.5,1.5,5.1,2.8,7.4,4.3
				c2.3,1.5,4.5,3,6.6,4.4c4.2,2.9,8.2,5.3,11.5,7.8c3.3,2.6,6.1,4.8,8.5,6.6c4.7,3.7,7.4,5.7,7.4,5.7l-0.4,0.5c0,0-2.8-2-7.6-5.4
				c-2.4-1.7-5.4-3.8-8.7-6.2c-3.4-2.3-7.5-4.6-11.8-7.2c-2.2-1.3-4.4-2.7-6.8-4.1c-2.4-1.3-4.9-2.5-7.5-3.9
				c-5.2-2.5-10.5-5.6-16.4-8c-5.8-2.4-11.7-5.3-18-7.4c-6.2-2.3-12.5-4.7-19-6.4c-3.2-0.9-6.5-1.9-9.7-2.8
				c-3.3-0.8-6.5-1.6-9.7-2.3c-6.4-1.7-12.9-2.7-19-4c-6.2-1.2-12.2-2.2-17.9-3.2c-5.7-0.8-11.1-1.8-16.1-2.3
				c-5-0.7-9.6-1.2-13.7-1.6c-4.1-0.4-7.7-0.7-10.6-0.9c-5.9-0.4-9.3-0.6-9.3-0.6L656.5,367.7z"/>
			<path id="XMLID_46_" class="st2" d="M637.9,395.8c0,0,3.6,0.1,9.8,1c3.1,0.4,6.8,1,11.1,1.8c4.3,0.9,9.1,1.8,14.3,3.1
				c5.2,1.3,10.8,2.9,16.6,4.8c5.8,1.9,11.9,4.1,18.1,6.7c6.2,2.6,12.5,5.6,18.7,8.8c6.2,3.3,12.5,6.7,18.6,10.5
				c6.1,3.7,12.1,7.7,17.8,11.7c5.7,4.1,11.1,8.4,16.3,12.7c2.5,2.2,4.9,4.4,7.4,6.6c2.3,2.2,4.6,4.4,6.7,6.6
				c4.2,4.4,8.2,8.7,11.5,12.9c3.5,4,6.3,8.1,8.9,11.5c2.4,3.6,4.6,6.7,6.2,9.3c3.2,5.3,5,8.4,5,8.4l-0.5,0.3c0,0-1.9-3-5.4-8.1
				c-1.8-2.5-4-5.5-6.6-9c-2.8-3.3-5.7-7.2-9.3-11c-3.5-4-7.6-8-11.9-12.2c-2.2-2-4.5-4.1-6.9-6.2c-2.4-2-4.9-4.1-7.5-6.2
				c-5.2-4.1-10.6-8.1-16.4-12c-5.8-3.8-11.7-7.6-17.9-10.9c-6.1-3.5-12.4-6.6-18.7-9.5c-6.3-2.9-12.5-5.6-18.6-8
				c-6-2.6-12-4.8-17.6-7c-5.7-2.1-11-4-16-5.7c-5-1.7-9.6-3.2-13.7-4.4c-4.1-1.2-7.7-2.3-10.7-3.1c-6-1.7-9.4-2.5-9.4-2.5
				L637.9,395.8z"/>
			<path id="XMLID_45_" class="st2" d="M163.9,299.9c0,0-1.5,52.8,80.1,45.7c0,0-53.4,8.3-66.3,65.2
				C177.7,410.7,154.2,358.7,163.9,299.9z"/>
			<path id="XMLID_44_" class="st2" d="M201.5,449.6c0,0,9.3,15.4,48.3-4c13.8-6.9-32.5,13.6-33.4,51.9
				C216.4,497.6,208.5,488.4,201.5,449.6z"/>
			<path id="XMLID_43_" class="st11" d="M403.5,441.9c0,0,60,61.4,104.7-15.6"/>
			<polygon id="XMLID_42_" class="st12" points="364,447.8 378.6,469.2 388.2,447.8 			"/>
			<polygon id="XMLID_41_" class="st12" points="526.2,423.5 545.1,441.3 549.8,418.3 			"/>
			<path id="XMLID_40_" class="st2" d="M571.7,388.5c-0.1,0.2-11.5,24.8-45,31.7c-23.1,4.8-43.3,2.1-56.8-7.6
				c-11.3-8-18.1-20.8-20.3-37.9l-6.3,0.8c0.1,0.7,0.2,1.4,0.4,2.1l-0.5,0.1c2.4,17.1-0.8,31.2-9.5,42c-10.5,13-29.3,20.9-52.8,22.5
				c-34.1,2.2-51.7-18.4-51.8-18.6l-4.9,4c0.7,0.9,17.7,21.1,51.5,21.1c1.8,0,3.7-0.1,5.7-0.2c25.3-1.6,45.6-10.5,57.3-24.8
				c6-7.4,9.7-16.1,11-26c3.9,8.3,9.5,15.1,16.6,20.2c10.3,7.3,23.8,11.1,39.2,11.1c7.2,0,14.7-0.8,22.6-2.4
				c36.8-7.6,49-34.2,49.5-35.4L571.7,388.5z"/>
			<path id="XMLID_39_" class="st2" d="M94.4,72.1c0,0,66.3,176.1,108.3,149.6c17.3-10.9-1.3-42.5,49.6-48.9
				C223.1,153.6,207.6,171.3,94.4,72.1z"/>
			<path id="XMLID_38_" class="st2" d="M710.4,0c0,0-27.6,186.1-74.3,169.1c-19.2-7-7.7-41.8-58.8-37.3
				C601.9,106.8,620.8,120.9,710.4,0z"/>
			<path id="XMLID_37_" class="st2" d="M421.1,91.7c0,0-43.6,3.2-57.4,12.3c0,0,26,23.4,32.8,31.4c30.4,35.8,34.1,78.3,34.1,78.3
				s-1.5-42.6,23.4-82.5c5.6-9,28.5-35.6,28.5-35.6C467.4,88.7,421.1,91.7,421.1,91.7z"/>
			<path id="XMLID_36_" class="st2" d="M695.5,239.8c0,0,11.4,51.6-70.1,59.8c0,0,57.9-1.8,81.3,51.6
				C706.6,351.2,716,295.7,695.5,239.8z"/>
			<path id="XMLID_35_" class="st2" d="M692.4,393.9c0,0-8.8,16.9-50.8,5.1c-14.9-4.2,39.3,7.3,47.4,44.7
				C689,443.8,692.7,433.3,692.4,393.9z"/>
			<path id="XMLID_34_" class="st4" d="M596.4,218.8c0,0-63.2-112.7-107.6,16.3c0,0-1.9,36.1,2.4,40c20.9,19.5,46.1,19.4,106.9-13.3
				C601.6,259.9,601.2,225.2,596.4,218.8z"/>
			<path id="XMLID_33_" class="st2" d="M596.5,219.6c0,0-1-2.3-3.1-6.2c-2.1-3.9-5.3-9.4-10-15.4c-4.6-6.1-10.6-12.9-18.5-18.7
				c-4-2.8-8.5-5.4-13.6-7.1c-5-1.7-10.8-2.2-16.2-1.3c-5.5,1-10.6,3.4-14.8,6.6c-4.4,3-7.7,7-10.8,10.8c-3,3.9-5.5,7.8-7.5,11.7
				c-2.2,3.8-3.8,7.7-5.3,11.1c-1.6,3.5-2.6,6.8-3.6,9.7c-1.1,2.9-1.7,5.5-2.4,7.6c-1.2,4.3-1.8,6.7-1.8,6.7s1.1-2.3,3-6.3
				c0.9-2,2-4.4,3.4-7.1c1.4-2.7,2.8-5.8,4.7-9.1c1.9-3.2,3.7-6.8,6.1-10.3c2.2-3.6,4.9-7.1,7.8-10.6c3-3.4,6.3-6.7,10-9.3
				c3.7-2.8,8-4.6,12.4-5.3c4.4-0.8,9-0.5,13.3,0.9c4.3,1.4,8.5,3.4,12.3,5.9c3.7,2.5,7.2,5.2,10.4,8.1c3.1,2.9,6,5.7,8.5,8.4
				c5.1,5.4,9,10.3,11.7,13.8C595,217.5,596.5,219.6,596.5,219.6z"/>
			<path id="XMLID_32_" class="st2" d="M592.5,249.2c-9.4-11.9-19.8-31.9-52.7-30.3c-32.9,1.6-60.9,56.4-43.5,76.7
				c17.4,20.3,86.7,12.9,99.2-23.9C600.4,257.2,596,253.6,592.5,249.2z"/>
			<g id="XMLID_23_">
				<path id="XMLID_31_" class="st9" d="M585.1,257.9c-8.3-10.5-17.5-28.2-46.5-26.7c-29,1.4-53.7,49.8-38.4,67.6
					c15.4,17.9,76.5,11.4,87.5-21.1C592,265,588.2,261.8,585.1,257.9z"/>
				<path id="XMLID_28_" class="st10" d="M505,273.3c2.3,17.8,18.7,30.4,36.5,28c17.8-2.4,30.4-18.7,28-36.5
					c-2.4-17.8-18.7-30.4-36.5-28C515.2,239.1,502.7,255.5,505,273.3z"/>
				<path id="XMLID_27_" class="st2" d="M511.9,272.4c1.8,14,14.7,23.9,28.7,22c14-1.9,23.9-14.7,22-28.7c-1.9-14-14.7-23.9-28.7-22
					C519.9,245.5,510.1,258.3,511.9,272.4z"/>
				<path id="XMLID_26_" class="st9" d="M517.9,260.7c0.8,5.9,6.2,10.1,12.1,9.3c5.9-0.8,10.1-6.2,9.3-12.1
					c-0.8-5.9-6.2-10.1-12.1-9.3C521.2,249.4,517.1,254.8,517.9,260.7z"/>
				<path id="XMLID_25_" class="st9" d="M524.4,280.4c0.3,1.9,2,3.3,4,3c1.9-0.3,3.3-2,3-4c-0.3-1.9-2-3.3-4-3
					C525.5,276.7,524.1,278.5,524.4,280.4z"/>
				<path id="XMLID_24_" class="st9" d="M539.4,274.9c0.2,1.1,1.2,2,2.4,1.8c1.1-0.2,2-1.2,1.8-2.4c-0.2-1.1-1.2-2-2.4-1.8
					C540,272.7,539.2,273.7,539.4,274.9z"/>
			</g>
		</g>
		<g id="XMLID_2_">
			<polygon id="XMLID_139_" class="st9" points="503.5,656.3 495.8,656.3 503.5,664 			"/>
			<path id="XMLID_138_" class="st9" d="M496.3,657.9h-20.6c-1,0-1.8,0.8-1.8,1.8v21.7v7.7v18.6c0,1,0.8,1.8,1.8,1.8h4.6
				c1,0,1.8-0.9,1.8-1.8v-18.6h18.5c1,0,1.8-0.9,1.8-1.8v-4c0-1-0.8-1.8-1.8-1.8h-10.8h-7.7v-7.7v-8.1H504l0,0h0L496.3,657.9z"/>
			<polygon id="XMLID_137_" class="st9" points="370,698.1 376.4,702.6 380.9,696.2 			"/>
			<polygon id="XMLID_136_" class="st9" points="421.4,665.1 421.4,656.8 413.1,665.1 			"/>
			<path id="XMLID_106_" class="st9" d="M420.3,697.4l0,10.3c0,1-0.8,1.8-1.8,1.8h-4.7c-1,0-1.8-0.9-1.8-1.8v-2l0,0v-8.3h0v-22.9
				l0,0h0v0v-8.3h8.3v8.3l0,0h0v8.3L420.3,697.4"/>
			<polygon id="XMLID_105_" class="st9" points="469.8,709 469.8,701 461.8,709 			"/>
			<polygon id="XMLID_104_" class="st9" points="367.4,677.8 360.7,673 360.7,677.8 			"/>
			<path id="XMLID_89_" class="st9" d="M395.2,665.8L395.2,665.8L395.2,665.8c1.5,0.5,3.4,1.3,5.7,2.7l0.2,0.1
				c1.1,0.7,2.4,0.4,3.1-0.8c0.3-0.4,0.6-0.9,0.9-1.3c0.3-0.5,0.6-0.9,0.9-1.4c0.5-0.7,0.5-1.3,0.4-1.7c-0.1-0.5-0.4-0.9-0.7-1.2
				l0,0c-0.1,0-0.1-0.1-0.2-0.1c-0.9-0.6-3.4-2.2-6.9-3.3l0,0c-1.9-0.6-4.1-1-6.5-1c-11.7,0-16,8.1-16,13.5
				c0,8.6,6.3,12.5,13.2,15.4c7.5,3.1,10.4,5.7,10.4,9.4c0,3.5-3.2,6.1-7.5,6.1c-1.1,0-2.2-0.2-3.3-0.5c-0.5-0.1-0.9-0.3-1.4-0.5
				c-3.3-1.3-5.9-3.4-6.4-3.8l-4.5,6.4c0,0,0,0,0,0c0.6,0.6,2.9,2.6,6.7,4c0,0,0,0,0.1,0c2.4,0.9,5.3,1.6,8.8,1.6
				c9.3,0,16.3-5.9,16.3-13.8c0-9.2-8-13.2-15.5-16.2c-6.2-2.5-8.7-5-8.7-8.4c0-2,1.6-5.9,7.5-5.9
				C392.6,665.2,393.7,665.4,395.2,665.8"/>
			<path id="XMLID_59_" class="st9" d="M531.1,675.8l4.8,1.1c1,0.2,2-0.4,2.2-1.4l3.6-15.3c0.2-1-0.4-2-1.4-2.2l-4.8-1.1
				c-1-0.2-2,0.4-2.2,1.4l-3.6,15.3C529.5,674.6,530.1,675.6,531.1,675.8z"/>
			<path id="XMLID_58_" class="st9" d="M552.8,668.7l-1.4-2c-0.6-0.8-1.8-1-2.5-0.4l-4,2.9c-0.8,0.6-1,1.7-0.4,2.6l1.4,2
				c2.9,4,3.9,9.1,2.8,14c-1.4,5.9-5.6,10.3-10.9,12.3c-2.3,0.8-4.9,1.2-7.4,1c-0.8-0.1-1.6-0.2-2.4-0.4
				c-6.4-1.5-11.1-6.4-12.7-12.3c-0.7-2.4-0.8-5.1-0.3-7.7c0-0.2,0.1-0.5,0.1-0.7c1.1-4.8,4.3-8.9,8.7-11.3l2.2-1.2
				c0.9-0.5,1.2-1.6,0.8-2.5l-2.3-4.4c-0.5-0.9-1.6-1.2-2.5-0.7l-2.1,1.1c-6.6,3.5-11.3,9.7-13,16.9c-0.1,0.3-0.2,0.7-0.2,1
				c-0.5,2.5-0.6,5.1-0.3,7.5c1.1,10.6,8.8,19.9,19.8,22.5c3.1,0.7,6.1,0.9,9.1,0.5c2.4-0.3,4.8-0.9,7-1.9c2.6-1.1,4.9-2.6,7-4.5
				c3.8-3.4,6.7-8,8-13.4C558.6,682.4,557.1,674.7,552.8,668.7z"/>
			<path id="XMLID_30_" class="st9" d="M366.3,678.9l2.6,1.9c0.1,0.1,0.2,0.1,0.3,0.2c0.7,0.7,1.1,1.7,1.1,2.7c0,1-0.4,2-1.1,2.7
				c-0.1,0.1-0.2,0.2-0.3,0.2l-20.3,14.7c-0.4,0.3-0.8,0.4-1.3,0.4c-0.3,0-0.7-0.1-1-0.2c-0.7-0.4-1.2-1.1-1.2-1.9v-4.3
				c0-0.7,0.3-1.3,0.9-1.7l13.5-9.8l-6.7-4.8l-6.9-5c-0.6-0.4-0.9-1.1-0.9-1.7v-4.3c0-0.8,0.5-1.5,1.2-1.9c0.3-0.2,0.6-0.2,1-0.2
				c0.4,0,0.9,0.1,1.3,0.4l11,8v4.8L366.3,678.9L366.3,678.9z"/>
			<path id="XMLID_29_" class="st9" d="M468.1,659.7c0-1-0.8-1.8-1.8-1.8h-4.5c-1,0-1.8,0.8-1.8,1.8v33.4l-19-25.6l-6.9-9.3
				l-0.2-0.3h-6c-1,0-1.8,0.8-1.8,1.8v48c0,1,0.8,1.8,1.8,1.8h4.5c1,0,1.8-0.8,1.8-1.8v-33.2l20,27.1l6,8l8-8V659.7z"/>
		</g>
		<g id="XMLID_17_">
			<path id="XMLID_21_" class="st13" d="M521.5,381.8c0,1.9,1.5,3.5,3.5,3.5c1.9,0,3.5-1.5,3.5-3.5c0-1.9-1.5-3.5-3.5-3.5
				C523,378.3,521.5,379.9,521.5,381.8z"/>
			<path id="XMLID_20_" class="st13" d="M528.4,395.5c0,1.9,1.5,3.5,3.5,3.5c1.9,0,3.5-1.5,3.5-3.5c0-1.9-1.5-3.5-3.5-3.5
				C529.9,392,528.4,393.6,528.4,395.5z"/>
			<path id="XMLID_19_" class="st13" d="M509.8,390.8c0,1.9,1.5,3.5,3.5,3.5c1.9,0,3.5-1.5,3.5-3.5c0-1.9-1.5-3.5-3.5-3.5
				C511.3,387.3,509.8,388.9,509.8,390.8z"/>
			<path id="XMLID_18_" class="st13" d="M516.7,404.5c0,1.9,1.5,3.5,3.5,3.5c1.9,0,3.5-1.5,3.5-3.5c0-1.9-1.5-3.5-3.5-3.5
				C518.2,401.1,516.7,402.6,516.7,404.5z"/>
		</g>
		<g id="XMLID_12_">
			<path id="XMLID_16_" class="st13" d="M379.6,399.3c0,1.9-1.5,3.5-3.5,3.5c-1.9,0-3.5-1.6-3.5-3.5c0-1.9,1.5-3.5,3.5-3.5
				C378.1,395.9,379.6,397.4,379.6,399.3z"/>
			<path id="XMLID_15_" class="st13" d="M372.7,413c0,1.9-1.5,3.5-3.5,3.5c-1.9,0-3.5-1.5-3.5-3.5c0-1.9,1.5-3.5,3.5-3.5
				C371.2,409.6,372.7,411.1,372.7,413z"/>
			<path id="XMLID_14_" class="st13" d="M391.4,408.4c0,1.9-1.5,3.5-3.5,3.5c-1.9,0-3.5-1.5-3.5-3.5c0-1.9,1.5-3.5,3.5-3.5
				C389.8,404.9,391.4,406.4,391.4,408.4z"/>
			<path id="XMLID_13_" class="st13" d="M384.4,422.1c0,1.9-1.5,3.5-3.5,3.5c-1.9,0-3.5-1.5-3.5-3.5c0-1.9,1.5-3.5,3.5-3.5
				C382.9,418.6,384.4,420.2,384.4,422.1z"/>
		</g>
		<path id="XMLID_11_" class="st4" d="M428.9,521.3c20.4,10.7,22.2,27.8,27.5,25.2c4.3-2.1,29.9-32,32.7-32.8c2.8-0.8,4-8.3-8.4-5.6
			c-12.4,2.7-15.4,19.1-23.3,19.1c-8.1,0-15.5-10-22.7-10.7C431.4,516.1,417.6,515.4,428.9,521.3z"/>
		<g id="XMLID_3_">
			<g id="XMLID_6_">
				<path id="XMLID_7_" d="M706.7,171.2c-5.7-3.1-37.3,5.1-68.6-3.7c-31.3-8.9-114.1,9.3-135.9,16.9c-21.8,7.5-52.5,15.3-74.6,19.1
					c-22.1,3.8-82.8-12.3-135.8-12.1c-53,0.3-158.8,32.2-161.4,32.4l3.1,34.7c0,0,0,0,12.5,9.7c12.5,9.6,27.1,61.3,38.9,82.7
					c11.8,21.4,97.3,33.5,163.1,6c65.8-27.5,53-109.8,82.6-110.7c29.6-0.9,32,46.5,59.2,79.1c27.2,32.6,147.8,15.5,171.6,0.8
					c23.8-14.7,26.9-60.8,35.1-79.5c8.2-18.7,14.1-32.7,14.1-32.7S712.4,174.3,706.7,171.2z M393.9,277.4
					c-9.9,39.5-38.6,69.9-88.1,78.9c-49.5,8.9-115.4,5-124.2-42.7c-8.8-47.7,1.5-73.8,1.5-73.8s7.2-20.4,31-25.2
					c23.8-4.8,116.2-15.8,143.8-8.4C385.4,213.5,403.8,237.9,393.9,277.4z M677.8,238.5c-0.2,37.7-1.1,78.2-61.3,87.2
					c-60.3,9-115.7,1.4-132.9-40.2c-17.2-41.6-15.3-53.1-8-65.7c10.1-17.5,26.9-24,45.3-29.2c18.4-5.2,100.8-18,115.8-10.4
					C651.7,187.8,678,200.8,677.8,238.5z"/>
			</g>
			<path id="XMLID_5_" class="st9" d="M166.4,240.2c0.2,2-5.2,4.1-12,4.7c-6.8,0.6-12.5-0.5-12.6-2.5c-0.2-2,5.2-4.1,12-4.7
				C160.5,237.1,166.2,238.2,166.4,240.2z"/>
			<path id="XMLID_4_" class="st9" d="M704,191.9c0.2,2-5.2,4.1-12,4.7c-6.8,0.6-12.5-0.5-12.6-2.5c-0.2-2,5.2-4.1,12-4.7
				C698.2,188.9,703.8,190,704,191.9z"/>
		</g>
		<g>
			<g id="XMLID_96_" class="st14">
				<path class="st15" d="M353.6,521.2c0,0,57.9,11.2,62.8,16.3c4.9,5,20.7,17.7,26.3,20.4c5.5,2.7,18.8,12.5,18.8,12.5
					s19.8-28.7,27.5-29c7.7-0.3,52.3-29,52.3-29"/>
				<g class="st16">
					<path class="st17" d="M353.6,521.2c0,0,0.7,0.1,2,0.4"/>
					<path class="st18" d="M359.6,522.4c14.9,3,52.9,11,56.8,15.1c4.9,5,20.7,17.7,26.3,20.4c3.8,1.8,11.2,7.1,15.5,10.1"/>
					<path class="st17" d="M459.9,569.2c1,0.7,1.6,1.2,1.6,1.2s0.4-0.6,1.2-1.7"/>
					<path class="st19" d="M465.1,565.3c6.1-8.2,18.2-23.7,23.9-24c6.4-0.3,38.2-20.1,48.8-26.8"/>
					<path class="st17" d="M539.6,513.5c1.1-0.7,1.7-1.1,1.7-1.1"/>
				</g>
			</g>
			<g id="no_stroke">
				<path id="XMLID_150_" class="st6" d="M371.4,900.8c0,0,1.1-58-1.7-76.4c-1.7-11.4-5.6-94.9-5.6-94.9s7.7,16,18.1,18.5
					c10.4,2.5-9.6,3.8-11.4,15.8c-1.8,12-2,17.3-2,17.3c0,0,10.5,82.3,8.2,94.8C375.9,881.9,371.4,900.8,371.4,900.8z"/>
				<path id="XMLID_149_" class="st6" d="M518.2,903.7c0,0,1.5-65,3.7-79c1.9-11.9,5.6-10.4,23.7-98.1c0,0-17.8,11.3-28.1,13.9
					c-10.4,2.6,11.6-3.3,13.5,9.1c1.8,12.4,0.5,22.2-2.1,27.8c-5.8,12.8-18.6,87.7-16.3,100.6C513.7,884.2,518.2,903.7,518.2,903.7z
					"/>
				<path id="XMLID_130_" class="st6" d="M544.4,521.2c0,0,11.5,9.9,17.2,7.2c5.8-2.7,9.1-22.9,21.5-24.2
					c12.4-1.3,23.2-2.7,23.2-2.7s-1.5-3.6-6.9-3.1C594,499,594,499,594,499s-14.9,5.5-16.8,1.8c-1.8-3.7-4-2-4.9,2
					c-0.8,4-3.6,11.1-6.2,13.1c-2.7,2-2.4,8.2-3.5,10.4C561.6,528.5,546.2,518,544.4,521.2z"/>
				<path id="XMLID_129_" class="st6" d="M286.3,504.3c0,0,10.4-2.4,13.9-5.9c3.5-3.5,15.9,15.3,15.9,15.3s3.1,3.7,4.8,4.7
					c1.7,1-2.3,2.8-2.3,2.8s-6.7-12.4-9.4-12.8c-2.7-0.4-6.4-2.3-7.4,1.2c-1,3.4,2.3-5.1,0-5.3c-2.3-0.3-5.7-3.4-8.4,0
					C290.6,507.7,288.3,502.9,286.3,504.3z"/>
				<path id="XMLID_95_" class="st6" d="M293.9,679.3c0,0-11.7-3.8-15.2-1.3c-3.5,2.5,7.9-2.5,7.6-5c-0.3-2.5-21.4,3.1-21.4,3.1
					s7.3,0.6,8.6-5.7c1.3-6.3-21.4-1.5-22.4,0c-1,1.5,19.6-15.1,23.6-6.3c4.1,8.8,15.1,0.4,16.1,6.3
					C291.8,676.3,293.9,679.3,293.9,679.3z"/>
				<path id="XMLID_94_" class="st6" d="M596.8,588.4c0,0,18,13.3,21.4,12.7c3.4-0.6-14.1,3.7-17.8,0.8c-3.7-3,20,12,23,10.1
					s1.9,16.9,3.7,20c1.7,3.1-8.4-13-12.7-14.8c-4.3-1.8,6.3-1.5,4.8-2.8c-1.5-1.4-33.8-7.6-31.8-9.6c2-1.9,22.4-5.9,21-5.8
					C606.9,599.1,596.8,588.4,596.8,588.4z"/>
				<path id="XMLID_93_" class="st6" d="M246.5,831.8c0,0,47.4-7.8,39.7-3.5c-7.7,4.3,39.8,7.8,39.8,7.8s-38.5,3-43.8-1.8
					c-5.3-4.8,0.5-5.5,0.5-5.5S250,831.3,246.5,831.8z"/>
				<path id="XMLID_91_" class="st6" d="M373.2,614.1c0,0-9.8,20.9-10.4,15.3c-0.5-5.5-18.4,7.4-18.4,7.4s10.3-14.6,15.4-12.9
					c5.1,1.7,3.8,4.1,3.8,4.1S372.5,615.6,373.2,614.1z"/>
				<path id="XMLID_92_" class="st6" d="M657.6,774c0,0-47.4,7.8-39.7,3.5c7.7-4.3-39.8-7.8-39.8-7.8s38.5-3,43.8,1.8
					c5.3,4.8-0.5,5.5-0.5,5.5S654.1,774.5,657.6,774z"/>
			</g>
			<g id="strokes_diferents">
				<g id="stroke_4">
					<path class="st9" d="M374.6,877.5c0,0,53.3-0.9,76-0.1c22.6,0.8,65.5-1,65.5-1"/>
					<path class="st6" d="M374.6,877.5c29.3-2.3,59-2.7,88.4-1.9c17.1,0.2,36,0.1,53,0.8c-23.5,2.6-47.2,3.7-70.8,2.9
						C424.5,878.8,395.1,878.5,374.6,877.5L374.6,877.5z"/>
				</g>
				<g id="stroke_2pts">
					<path id="XMLID_87_" class="st20" d="M385.4,880.2c0,0-0.6,17.9-0.6,18.5"/>
					<path id="XMLID_86_" class="st20" d="M460.6,882.5c0,0,0.2,15.8,0,17"/>
					<path id="XMLID_85_" class="st20" d="M474.7,881.2c0,0,1.7,16.4,0.6,18.3"/>
					<path id="XMLID_84_" class="st20" d="M399.2,880.2c0,0-0.6,17.9-0.6,18.5"/>
					<path id="XMLID_83_" class="st20" d="M414.4,880.2c0,0-0.6,17.9-0.6,18.5"/>
					<path id="XMLID_82_" class="st20" d="M430.2,880.2c0,0-0.6,17.9-0.6,18.5"/>
					<path id="XMLID_81_" class="st20" d="M446.6,880.2c0,0-0.6,17.9-0.6,18.5"/>
					<path id="XMLID_80_" class="st20" d="M488.7,881.2c0,0,1.7,16.4,0.6,18.3"/>
					<path id="XMLID_79_" class="st20" d="M504.9,881.2c0,0,1.7,16.4,0.6,18.3"/>
				</g>
			</g>
			<g id="stroke_4pts_preto">
				<path id="XMLID_134_" class="st21" d="M489,543.6c0,0,8.3,25.7,7.8,34.2c-0.4,8.6-10,15.6-10.7,26.7
					c-0.8,11.1,11.2,30.2,10.7,32.2"/>
				<path id="XMLID_135_" class="st21" d="M412.1,543.6c0,0-10.9,31.7-4,43c6.8,11.3,8.3,33.5,4,43.3"/>
			</g>
			<g id="XMLID_118_">
				<g id="stroke_4pts">
					<path class="st6" d="M229.3,894c11.9,2.1,23.7,4.3,35.6,6.4c11.8,1.9,23.7,4.1,35.6,4.4c24,0.2,48.1-1.8,72.2-2.3
						c-23.9,3.8-47.9,6.4-72.3,6.3c-12.2-0.4-24.2-2.7-36.1-5.3C252.5,900.9,240.8,897.7,229.3,894L229.3,894z"/>
				</g>
				<g id="stroke_2pts_00000071552482538693844220000005714668231041016252_">
					<path id="XMLID_125_" class="st22" d="M249.1,902.5c0,0-1.8,14.8-0.6,21.2"/>
					<path id="XMLID_124_" class="st22" d="M266,906.8c0,0-1.5,18.8-1.3,21.1"/>
					<path id="XMLID_123_" class="st22" d="M283.1,910.1c0,0-3.8,18.2-2.5,21.1"/>
					<path id="XMLID_122_" class="st22" d="M301,913.6c0,0-0.6,17.9-0.6,18.5"/>
					<path id="XMLID_121_" class="st22" d="M318.5,912.2c0,0,0.2,19.8,0,21.4"/>
					<path id="XMLID_120_" class="st22" d="M335,912.2c0,0,1.7,19.1,0.6,21.4"/>
					<path id="XMLID_119_" class="st22" d="M349.8,910.1c0,0,2.8,17.3,1.9,21.1"/>
				</g>
			</g>
			<g id="XMLID_107_">
				<g id="stroke_4pts_00000161619697629350972740000001140944990088250543_">
					<path class="st6" d="M525.2,910.9c19.3,2.3,38.6,5.3,57.9,6.7c19.4,1.1,38.6-1.5,57.9-3.4c-4.7,1.5-9.4,2.6-14.2,3.6
						c-14.4,3-29.1,4.9-44,3.7C563.3,919.9,544.1,916,525.2,910.9L525.2,910.9z"/>
				</g>
				<g id="stroke_2pts_00000049928909691968448990000016979981280296116901_">
					<path id="XMLID_114_" class="st22" d="M537.8,917.6c0,0-1.8,14.8-0.6,21.2"/>
					<path id="XMLID_113_" class="st22" d="M554.5,921.4c0,0-1.5,18.8-1.3,21.1"/>
					<path id="XMLID_112_" class="st22" d="M573.6,923.2c0,0-3.8,18.2-2.5,21.1"/>
					<path id="XMLID_111_" class="st22" d="M590.1,925.9c0,0-0.6,17.9-0.6,18.5"/>
					<path id="XMLID_110_" class="st22" d="M609.7,922.6c0,0,0.2,19.8,0,21.4"/>
					<path id="XMLID_109_" class="st22" d="M624.2,921.3c0,0,1.7,19.1,0.6,21.4"/>
					<path id="XMLID_108_" class="st22" d="M638.9,917.2c0,0,2.8,17.3,1.9,21.1"/>
				</g>
			</g>
			<path id="XMLID_132_" class="st7" d="M502.2,638.9c1.6,3.6,1.5,7.2-0.4,8c-1.8,0.8-4.6-1.4-6.3-5c-1.6-3.6-1.5-7.2,0.4-8
				C497.8,633.1,500.6,635.3,502.2,638.9z"/>
			<path id="XMLID_133_" class="st7" d="M416.4,633.3c0,4-1.6,7.2-3.6,7.2c-2,0-3.6-3.2-3.6-7.2c0-4,1.6-7.2,3.6-7.2
				C414.8,626.1,416.4,629.3,416.4,633.3z"/>
		</g>
	</g>
</g>
<g id="XMLID_187_">
	<path id="XMLID_205_" class="st1" d="M514.2,651.8c0,0-12.1-28.4,1.3-45.4c13.4-17,34.2-27.5,47-27.5c12.7,0,57.3-7.1,78.5,4.2
		c21.2,11.3,28.8,29.2,29,32.5c0.2,3.7,2.9,44.7-21.9,45.3c-26.7,0.6-24.8-6.4-24.8-6.4s-6.5,8.5-18,8.5
		c-14.2,0-19.5-10.6-19.5-10.6s0.5,10.6-17.8,10.6c-16.7,0-19.9-10.3-19.9-10.3s1.6,7.9-14.6,7.4
		C518.5,659.9,514.2,651.8,514.2,651.8z"/>
	<g id="XMLID_201_">
		<path class="st2" d="M534.4,638.5c-5.5-4.1-8.8-10.8-8.4-17.8c0.4-7.4,7-13.5,14.2-13.5c-2.4,2.4-4.4,4.5-5.8,6.8
			C529.9,621.7,532.9,630.2,534.4,638.5L534.4,638.5z"/>
	</g>
	<g id="XMLID_198_">
		<path class="st2" d="M566.2,640.1c-8.9-8.2-12-25.4,2-30.1C557.7,618.5,561.8,629.6,566.2,640.1L566.2,640.1z"/>
	</g>
	<g id="XMLID_195_">
		<path class="st2" d="M607.1,640.1c1.5-5.8,4.1-11,6-16.5c1.2-3.8,2.5-7,0.6-10.4c-0.6-1.1-1.7-2.1-2.9-3.2c6.2-0.8,9.9,5,9.2,10.7
			C618.9,628.8,613.9,635.9,607.1,640.1L607.1,640.1z"/>
	</g>
	<g id="XMLID_192_">
		<path class="st2" d="M648.5,634.8c1.9-3.8,4.7-7.2,4.2-11.1c-0.7-3.4-2.7-5.6-4.5-9.1c5.3,0.1,10.6,4.3,10.7,10
			C658.9,630.2,653.8,634.6,648.5,634.8L648.5,634.8z"/>
	</g>
	<path id="XMLID_191_" class="st4" d="M561.7,579.1c0,0,37.3-4.9,55.4-0.6c18.2,4.3,28.9,8.8,35.9,13c20.2,12.2-27.6-1-40.3-6.8
		c-12.5-5.7-28.7-3.8-43.9-2.7C547.6,583.5,561.7,579.1,561.7,579.1z"/>
	<path id="XMLID_188_" class="st2" d="M557.1,602.4c0,0,7.4,5.3,11.4,3.1c4-2.2,21.4-8.9,23.2-6.3c1.8,2.7,15.4-11.7,9.6-11.1
		c-5.8,0.5-14.6-4.4-21.4,2C573.1,596.6,562.1,602.4,557.1,602.4z"/>
</g>
<g id="XMLID_168_">
	<path id="XMLID_186_" class="st1" d="M236.6,653.5c0,0-12.1-28.4,1.3-45.4c13.4-17,34.2-27.5,47-27.5c12.7,0,57.3-7.1,78.5,4.2
		c21.2,11.3,28.4,29.7,29,32.5c0.4,2,2.9,44.7-21.9,45.3c-26.7,0.6-24.8-6.4-24.8-6.4s-6.5,8.5-18,8.5c-14.1,0-19.5-10.6-19.5-10.6
		s0.5,10.6-17.8,10.6c-16.7,0-19.9-10.3-19.9-10.3s1.6,7.9-14.6,7.4C240.8,661.6,236.6,653.5,236.6,653.5z"/>
	<g id="XMLID_182_">
		<path class="st2" d="M256.8,640.2c-5.5-4.1-8.8-10.8-8.4-17.8c0.4-7.4,7-13.5,14.2-13.5c-2.4,2.4-4.4,4.5-5.8,6.8
			C252.2,623.4,255.3,631.9,256.8,640.2L256.8,640.2z"/>
	</g>
	<g id="XMLID_179_">
		<path class="st2" d="M288.6,641.8c-5.4-3.5-8.7-9.3-9.2-15.8c-0.6-6.7,4.2-13.8,11.1-14.3c-1.9,2.5-3.4,4.8-4.2,7
			C283.9,626.5,287.2,634,288.6,641.8L288.6,641.8z"/>
	</g>
	<g id="XMLID_176_">
		<path class="st2" d="M329.4,641.8c1.5-5.8,4.1-11,6-16.5c1.2-3.8,2.5-7,0.6-10.4c-0.6-1.1-1.7-2.1-2.9-3.2c6.2-0.8,9.9,5,9.2,10.7
			C341.3,630.5,336.3,637.6,329.4,641.8L329.4,641.8z"/>
	</g>
	<g id="XMLID_173_">
		<path class="st2" d="M370.8,636.5c1.9-3.8,4.7-7.2,4.2-11.1c-0.7-3.4-2.7-5.6-4.5-9.1c5.3,0.1,10.6,4.3,10.7,10
			C381.2,631.9,376.2,636.3,370.8,636.5L370.8,636.5z"/>
	</g>
	<path id="XMLID_172_" class="st4" d="M284,580.8c0,0,37.3-4.9,55.4-0.6c18.2,4.3,28.9,8.8,35.9,13c20.2,12.2-27.6-1-40.3-6.8
		c-12.5-5.7-28.7-3.8-43.9-2.7C270,585.2,284,580.8,284,580.8z"/>
	<path id="XMLID_169_" class="st2" d="M281.9,592.8c0,0,4.4,8,9,7.7c4.6-0.3,23.1,1.1,23.7,4.2c0.5,3.2,18.9-4,13.4-6
		c-5.5-2-11.3-10.2-20.2-7.3C298.8,594.4,286.4,594.9,281.9,592.8z"/>
</g>
<g>
</g>
<g>
</g>
<g>
</g>
<g>
</g>
<g>
</g>
</svg>
