<svg width="421" height="106" viewBox="0 0 421 106" fill="none" xmlns="http://www.w3.org/2000/svg">
<path d="M313.95 0.859985H298.64L313.95 15.13V0.859985Z" fill="white"/>
<path d="M299.71 2.99999H259C258.042 3.01054 257.127 3.40071 256.455 4.08494C255.784 4.76917 255.412 5.69161 255.42 6.64999V101.5C255.415 102.457 255.788 103.377 256.459 104.059C257.13 104.741 258.043 105.129 259 105.14H268.11C269.061 105.109 269.964 104.715 270.632 104.037C271.3 103.36 271.682 102.451 271.7 101.5V64.74H308.2C309.151 64.7094 310.054 64.3145 310.722 63.6371C311.39 62.9596 311.772 62.0513 311.79 61.1V53.22C311.773 52.2677 311.391 51.3583 310.723 50.6792C310.055 50.0001 309.152 49.6031 308.2 49.57H271.7V18.32H315L299.71 2.99999Z" fill="white"/>
<path d="M50.0099 82.63L62.6799 91.41L71.5699 78.74L50.0099 82.63Z" fill="white"/>
<path d="M151.53 17.3V1.91999L135.11 17.3H151.53Z" fill="white"/>
<path d="M149.41 81.07V101.5C149.395 102.45 149.015 103.359 148.348 104.036C147.682 104.714 146.78 105.109 145.83 105.14H136.58C135.631 105.107 134.73 104.711 134.064 104.034C133.398 103.357 133.017 102.45 133 101.5V19.43H149.42V81.07" fill="white"/>
<path d="M247.31 104.08V88.21L231.44 104.08H247.31Z" fill="white"/>
<path d="M44.7999 42.42L31.6099 32.9V42.42H44.7999Z" fill="white"/>
<path d="M99.7099 18.73C103.672 20.0764 107.462 21.8856 111 24.12L111.39 24.35C113.61 25.77 116.1 25.06 117.56 22.7L119.26 20.12C119.87 19.19 120.49 18.26 121.06 17.41C121.702 16.5378 121.982 15.4508 121.84 14.3769C121.699 13.303 121.147 12.3257 120.3 11.65C120.19 11.57 120.1 11.47 119.99 11.4C115.82 8.5933 111.248 6.43542 106.43 4.99999C102.254 3.70534 97.9114 3.03147 93.5399 2.99999C70.3399 2.99999 61.9199 19 61.9199 29.7C61.9199 46.8 74.4499 54.41 87.9999 60.08C102.82 66.18 108.6 71.37 108.6 78.59C108.6 85.59 102.32 90.59 93.6799 90.59C91.4936 90.5615 89.3223 90.2248 87.2299 89.59C86.2999 89.32 85.3899 89.01 84.4999 88.67C79.9567 86.8216 75.7084 84.3185 71.8899 81.24L63.0599 93.86C66.9594 97.3072 71.4522 100.018 76.3199 101.86H76.4299C81.974 103.999 87.8676 105.087 93.8099 105.07C112.15 105.07 125.99 93.35 125.99 77.82C125.99 59.66 110.13 51.75 95.2799 45.82C83.0399 40.82 78.0499 36 78.0499 29.13C78.0499 25.13 81.1699 17.51 92.9699 17.51C95.2613 17.5649 97.5308 17.9695 99.6999 18.71" fill="white"/>
<path d="M368.45 38.53L378 40.79C378.467 40.8927 378.95 40.9019 379.42 40.817C379.891 40.7321 380.34 40.5548 380.741 40.2954C381.143 40.036 381.489 39.6996 381.76 39.3056C382.031 38.9116 382.221 38.4679 382.32 38L389.4 7.72999C389.596 6.79961 389.427 5.82959 388.928 5.02013C388.429 4.21068 387.639 3.62357 386.72 3.37999L377.16 2.15999C375.23 1.70999 373.3 1.90999 372.84 3.86999L365.77 34.14C365.563 35.0762 365.726 36.0563 366.226 36.8748C366.725 37.6932 367.522 38.2864 368.45 38.53Z" fill="white"/>
<path d="M411.36 24.35L408.5 20.35C407.93 19.6001 407.096 19.095 406.168 18.9372C405.239 18.7793 404.286 18.9805 403.5 19.5L395.5 25.22C394.729 25.7907 394.216 26.6431 394.071 27.5912C393.927 28.5393 394.164 29.5059 394.73 30.28L397.55 34.21C401.353 39.517 403.551 45.8048 403.883 52.3252C404.216 58.8456 402.668 65.3242 399.425 70.9905C396.181 76.6567 391.379 81.2721 385.588 84.2875C379.797 87.3029 373.262 88.5915 366.76 88C365.178 87.8569 363.608 87.6063 362.06 87.25C353.514 85.2326 346.075 79.9981 341.29 72.6354C336.505 65.2728 334.743 56.3488 336.37 47.72C336.457 47.2533 336.557 46.7833 336.67 46.31C337.77 41.5826 339.87 37.1457 342.829 33.2975C345.787 29.4493 349.534 26.2791 353.82 24L358.11 21.71C358.938 21.2414 359.554 20.4726 359.832 19.5626C360.109 18.6525 360.026 17.6707 359.6 16.82L355 8.16999C354.532 7.33302 353.753 6.71441 352.832 6.44853C351.911 6.18265 350.922 6.29098 350.08 6.74999L345.82 8.99999C339.402 12.4212 333.788 17.1732 329.355 22.9384C324.921 28.7035 321.769 35.3488 320.11 42.43C319.95 43.12 319.81 43.81 319.68 44.5C318.736 49.405 318.523 54.4228 319.05 59.39C320.163 69.9363 324.528 79.8756 331.54 87.8308C338.553 95.786 347.866 101.363 358.19 103.79C368.773 106.271 379.873 105.293 389.86 101C394.941 98.8146 399.638 95.8264 403.77 92.15C413.19 83.7804 419.178 72.2196 420.58 59.6965C421.981 47.1735 418.697 34.575 411.36 24.33V24.35Z" fill="white"/>
<path d="M42.6799 44.55L47.8499 48.29C48.0314 48.4229 48.2019 48.57 48.3599 48.73C49.0632 49.4322 49.6212 50.2661 50.0019 51.1841C50.3825 52.1021 50.5785 53.0862 50.5785 54.08C50.5785 55.0738 50.3825 56.0579 50.0019 56.9759C49.6212 57.8939 49.0632 58.7278 48.3599 59.43C48.2017 59.5868 48.0312 59.7306 47.8499 59.86L7.66994 88.86C7.03504 89.319 6.28562 89.5936 5.50447 89.6534C4.72331 89.7132 3.94082 89.556 3.24344 89.199C2.54605 88.842 1.9609 88.2992 1.55263 87.6306C1.14436 86.9619 0.928863 86.1934 0.929936 85.41V76.84C0.930156 76.1657 1.09079 75.5013 1.39855 74.9014C1.70632 74.3015 2.1524 73.7834 2.69994 73.39L29.4799 54.07L2.68994 34.73C2.14542 34.3343 1.70215 33.8156 1.39629 33.216C1.09042 32.6164 0.930628 31.9531 0.929936 31.28V22.72C0.932447 21.938 1.15014 21.1718 1.55917 20.5054C1.9682 19.8389 2.55278 19.2979 3.24886 18.9416C3.94494 18.5853 4.72566 18.4274 5.50548 18.4854C6.28531 18.5433 7.03414 18.8148 7.66994 19.27L29.4799 35V44.52H42.6799V44.55Z" fill="white"/>
<path d="M244 6.65999C243.986 5.7109 243.609 4.80322 242.947 4.12281C242.285 3.44239 241.388 3.0407 240.44 2.99999H231.44C230.482 3.01054 229.567 3.40071 228.895 4.08494C228.224 4.76917 227.852 5.69161 227.86 6.64999V72.72L176.74 3.66999L176.26 3.00999H164.33C163.394 3.01222 162.496 3.3789 161.825 4.03228C161.155 4.68567 160.766 5.57437 160.74 6.50999V101.51C160.757 102.461 161.14 103.37 161.808 104.047C162.476 104.725 163.379 105.119 164.33 105.15H173.16C173.634 105.146 174.103 105.049 174.539 104.864C174.976 104.679 175.371 104.409 175.704 104.071C176.036 103.733 176.299 103.333 176.477 102.894C176.654 102.454 176.744 101.984 176.74 101.51V35.76L216.26 89.28L228.16 105.14L244 89.28V6.65999Z" fill="white"/>
</svg>
