<svg xmlns="http://www.w3.org/2000/svg" version="1.1" xmlns:xlink="http://www.w3.org/1999/xlink" xmlns:svgjs="http://svgjs.dev/svgjs" width="1440" height="1440"><svg xmlns:dc="http://purl.org/dc/elements/1.1/" xmlns:cc="http://creativecommons.org/ns#" xmlns:rdf="http://www.w3.org/1999/02/22-rdf-syntax-ns#" xmlns:svg="http://www.w3.org/2000/svg" xmlns="http://www.w3.org/2000/svg" viewBox="0 0 1440 1440" height="1440" width="1440" xml:space="preserve" id="SvgjsSvg1215" version="1.1"><metadata id="SvgjsMetadata1214"><rdf:rdf><cc:work rdf:about=""><dc:format>image/svg+xml</dc:format><dc:type rdf:resource="http://purl.org/dc/dcmitype/StillImage"></dc:type></cc:work></rdf:rdf></metadata><defs id="SvgjsDefs1213"><clipPath id="SvgjsClipPath1212" clipPathUnits="userSpaceOnUse"><path id="SvgjsPath1211" d="M 0,1080 H 1080 V 0 H 0 Z"></path></clipPath></defs><g transform="matrix(1.3333333,0,0,-1.3333333,0,1440)" id="SvgjsG1210"><path id="SvgjsPath1209" style="fill:#323363;fill-opacity:1;fill-rule:nonzero;stroke:none" d="M 0,0 H 1080 V 1080 H 0 Z"></path><g id="SvgjsG1208"><g clip-path="url(#clipPath20)" id="SvgjsG1207"><path id="SvgjsPath1206" style="fill:none;stroke:#000000;stroke-width:1;stroke-linecap:butt;stroke-linejoin:miter;stroke-miterlimit:10;stroke-dasharray:none;stroke-opacity:1" d="M 1092.226,-12.84 H -16.524 v 1111.25 h 1108.75 z"></path><g transform="translate(674.384,616.1157)" id="SvgjsG1205"><path id="SvgjsPath1204" style="fill:#ffffff;fill-opacity:1;fill-rule:nonzero;stroke:none" d="m 0,0 48.396,-11.404 c 9.749,-2.243 19.539,3.998 21.829,13.904 l 35.804,153.164 c 2.207,9.575 -4.131,19.886 -13.54,22.05 l -48.396,6.17 c -9.749,2.243 -19.545,1.236 -21.836,-8.67 L -13.54,22.05 C -15.747,12.474 -9.409,2.164 0,0"></path></g><g transform="translate(891.5756,687.8661)" id="SvgjsG1203"><path id="SvgjsPath1202" style="fill:#ffffff;fill-opacity:1;fill-rule:nonzero;stroke:none" d="m 0,0 -14.453,20.075 c -5.77,7.956 -17.705,9.97 -25.516,4.301 L -80.395,-4.592 c -8.095,-5.873 -9.832,-17.344 -3.875,-25.585 l 14.273,-19.881 c 28.9,-40.412 38.987,-91.31 27.661,-139.645 -13.761,-58.747 -56.235,-103.39 -109.093,-122.641 -23.282,-8.482 -48.563,-12.056 -74.314,-9.707 -7.887,0.719 -15.823,1.951 -23.752,3.809 -63.88,14.958 -111.08,63.88 -127.089,123.176 -6.601,24.42 -7.936,50.588 -2.92,76.888 0.45,2.364 0.92,4.732 1.481,7.097 11.312,48.334 42.951,89.46 86.795,112.835 l 21.71,11.577 c 8.635,4.673 12.184,16.24 7.583,24.739 l -23.475,43.837 c -4.774,8.794 -15.92,12.002 -24.865,7.164 l -21.442,-11.376 c -65.713,-35.034 -113.127,-96.689 -130.106,-169.153 -0.823,-3.494 -1.501,-6.986 -2.172,-10.484 -4.864,-25.417 -5.791,-50.76 -3.196,-75.373 11.222,-106.327 88.24,-198.989 198.075,-224.716 30.56,-7.158 61.147,-8.531 90.614,-4.864 24.195,3.017 47.621,9.475 69.671,18.916 25.717,11.004 49.489,26.194 70.425,44.778 38.503,34.178 67.257,80.038 79.863,133.866 C 58.428,-136.872 43.311,-60.573 0,0"></path></g><g transform="translate(329.0346,591.4376)" id="SvgjsG1201"><path id="SvgjsPath1200" style="fill:#ffffff;fill-opacity:1;fill-rule:nonzero;stroke:none" d="M 0,0 -56.794,41.019 -56.79,0.005 Z"></path></g><g transform="translate(319.9095,582.2769)" id="SvgjsG1199"><path id="SvgjsPath1198" style="fill:#ffffff;fill-opacity:1;fill-rule:nonzero;stroke:none" d="m 0,0 22.259,-16.078 c 0.792,-0.573 1.533,-1.207 2.221,-1.896 6.158,-6.15 9.546,-14.336 9.546,-23.031 0,-8.706 -3.388,-16.894 -9.546,-23.042 -0.688,-0.689 -1.429,-1.322 -2.221,-1.887 l -172.987,-124.937 c -3.177,-2.299 -6.937,-3.467 -10.718,-3.467 -2.844,0 -5.702,0.659 -8.33,2.01 -6.121,3.128 -9.972,9.421 -9.972,16.293 v 37.028 c 0,5.881 2.826,11.405 7.597,14.846 L -56.825,-40.997 -113.594,0 -172.16,42.292 c -4.767,3.442 -7.588,8.965 -7.588,14.836 v 36.877 c 0,6.873 3.85,13.175 9.97,16.302 2.63,1.341 5.485,2.003 8.332,2.003 3.781,0 7.539,-1.172 10.718,-3.46 L -56.825,41.019 V 0.005 L -0.027,0 Z"></path></g></g></g></g></svg><style>@media (prefers-color-scheme: light) { :root { filter: none; } }
@media (prefers-color-scheme: dark) { :root { filter: none; } }
</style></svg>