<?xml version="1.0" encoding="utf-8"?>
<!-- Generator: Adobe Illustrator 27.7.0, SVG Export Plug-In . SVG Version: 6.00 Build 0)  -->
<svg version="1.1" id="freiheit_x5F_Logo_x5F_.com_x5F_Stacked_x5F_Black"
	 xmlns="http://www.w3.org/2000/svg" xmlns:xlink="http://www.w3.org/1999/xlink" x="0px" y="0px" viewBox="0 0 674.3 503.4"
	 style="enable-background:new 0 0 674.3 503.4;" xml:space="preserve">
<style type="text/css">
	.st0{fill:#292C35;}
</style>
<g>
	<g>
		<path class="st0" d="M136.9,382.6c-0.2,0.1-0.4,0.2-0.7,0.3c-0.3,0.1-0.7,0.2-1.1,0.3c-0.4,0.1-0.9,0.1-1.3,0.1
			c-0.5,0-1-0.1-1.5-0.3c-0.4-0.2-0.8-0.5-1.1-0.9c-0.3-0.4-0.4-0.9-0.4-1.5v-8.7H129v-1.7h1.8v-4.3h2.2v4.3h2.9v1.7H133v8.1
			c0,0.5,0.2,0.8,0.5,1c0.3,0.2,0.6,0.3,1,0.3c0.4,0,0.8-0.1,1.2-0.2s0.6-0.3,0.7-0.3L136.9,382.6z"/>
		<path class="st0" d="M150.2,383.1h-2.2v-7.2c0-1.3-0.2-2.3-0.7-3c-0.5-0.7-1.2-1-2-1c-0.6,0-1.1,0.1-1.7,0.4s-1.1,0.7-1.5,1.2
			c-0.4,0.5-0.7,1.1-0.9,1.7v7.8H139V365h2.2v8.1c0.5-0.9,1.2-1.7,2.1-2.2c0.9-0.5,1.8-0.8,2.9-0.8c0.8,0,1.4,0.1,2,0.4
			c0.5,0.3,0.9,0.7,1.3,1.2c0.3,0.5,0.5,1.1,0.7,1.7c0.1,0.7,0.2,1.4,0.2,2.1V383.1z"/>
		<path class="st0" d="M159.4,383.4c-1,0-1.9-0.2-2.7-0.5c-0.8-0.4-1.5-0.8-2.1-1.5c-0.6-0.6-1-1.3-1.4-2.1
			c-0.3-0.8-0.5-1.7-0.5-2.6c0-1.2,0.3-2.3,0.8-3.3c0.6-1,1.3-1.8,2.4-2.4c1-0.6,2.2-0.9,3.5-0.9c1.3,0,2.5,0.3,3.4,0.9
			c1,0.6,1.7,1.4,2.3,2.4c0.5,1,0.8,2.1,0.8,3.2c0,0.2,0,0.3,0,0.5c0,0.2,0,0.3,0,0.4h-10.8c0.1,0.8,0.3,1.6,0.7,2.2
			c0.4,0.6,0.9,1.2,1.6,1.5c0.6,0.4,1.3,0.6,2.1,0.6c0.8,0,1.5-0.2,2.3-0.6c0.7-0.4,1.2-0.9,1.5-1.6l1.9,0.5
			c-0.3,0.6-0.7,1.2-1.3,1.7c-0.6,0.5-1.2,0.9-2,1.2S160.3,383.4,159.4,383.4z M155,375.9h8.9c-0.1-0.8-0.3-1.6-0.7-2.2
			c-0.4-0.6-0.9-1.1-1.6-1.5c-0.6-0.4-1.4-0.5-2.1-0.5c-0.8,0-1.5,0.2-2.1,0.5s-1.2,0.9-1.6,1.5C155.3,374.3,155.1,375.1,155,375.9z
			"/>
		<path class="st0" d="M179.1,383.4c-1.1,0-2.1-0.2-3-0.5c-0.9-0.4-1.8-0.9-2.4-1.6l0.8-1.5c0.7,0.7,1.5,1.2,2.2,1.5
			s1.5,0.4,2.3,0.4c0.9,0,1.6-0.2,2.2-0.5c0.6-0.3,0.8-0.8,0.8-1.5c0-0.5-0.1-0.8-0.4-1.1c-0.3-0.2-0.7-0.4-1.2-0.6
			c-0.5-0.2-1.2-0.3-1.9-0.5c-0.9-0.3-1.7-0.5-2.3-0.8s-1.1-0.7-1.4-1.1c-0.3-0.4-0.5-1-0.5-1.7c0-0.8,0.2-1.5,0.6-2.1
			c0.4-0.6,1-1,1.8-1.3c0.8-0.3,1.6-0.4,2.6-0.4s1.8,0.1,2.6,0.4c0.8,0.3,1.5,0.7,2,1.3l-1,1.5c-0.5-0.5-1.1-0.9-1.7-1.2
			c-0.6-0.3-1.3-0.4-2.1-0.4c-0.4,0-0.9,0.1-1.3,0.2c-0.4,0.1-0.8,0.3-1.1,0.6c-0.3,0.3-0.4,0.7-0.4,1.1c0,0.4,0.1,0.7,0.3,1
			c0.2,0.2,0.6,0.4,1,0.6c0.4,0.2,1,0.3,1.6,0.5c1,0.3,1.8,0.6,2.6,0.8c0.7,0.3,1.3,0.6,1.7,1.1c0.4,0.4,0.6,1.1,0.6,1.9
			c0,1.2-0.5,2.2-1.4,2.9C181.9,383.1,180.7,383.4,179.1,383.4z"/>
		<path class="st0" d="M192.5,383.4c-1,0-1.9-0.2-2.7-0.5c-0.8-0.4-1.5-0.8-2.1-1.5c-0.6-0.6-1-1.3-1.3-2.1
			c-0.3-0.8-0.5-1.7-0.5-2.5c0-0.9,0.2-1.8,0.5-2.6c0.3-0.8,0.8-1.5,1.3-2.1c0.6-0.6,1.3-1.1,2.1-1.5c0.8-0.4,1.7-0.5,2.7-0.5
			c1,0,1.9,0.2,2.7,0.5s1.5,0.8,2.1,1.5c0.6,0.6,1,1.3,1.4,2.1c0.3,0.8,0.5,1.7,0.5,2.6c0,0.9-0.2,1.7-0.5,2.5
			c-0.3,0.8-0.8,1.5-1.3,2.1c-0.6,0.6-1.3,1.1-2.1,1.5C194.4,383.2,193.5,383.4,192.5,383.4z M188.2,376.7c0,0.9,0.2,1.7,0.6,2.4
			s0.9,1.3,1.6,1.7s1.4,0.6,2.2,0.6s1.5-0.2,2.2-0.6c0.7-0.4,1.2-1,1.6-1.7c0.4-0.7,0.6-1.5,0.6-2.4c0-0.9-0.2-1.7-0.6-2.4
			c-0.4-0.7-0.9-1.3-1.6-1.7s-1.4-0.6-2.2-0.6s-1.5,0.2-2.2,0.7s-1.2,1-1.6,1.7S188.2,375.8,188.2,376.7z"/>
		<path class="st0" d="M202.5,383.1v-11.3h-1.8v-1.7h1.8v-0.3c0-1.1,0.2-2,0.5-2.8c0.3-0.8,0.8-1.4,1.4-1.8c0.6-0.4,1.3-0.6,2.1-0.6
			c0.5,0,1,0.1,1.5,0.2c0.5,0.1,0.9,0.3,1.3,0.6l-0.5,1.6c-0.2-0.2-0.5-0.3-0.9-0.4c-0.3-0.1-0.7-0.1-1-0.1c-0.7,0-1.3,0.3-1.7,0.8
			c-0.4,0.6-0.6,1.3-0.6,2.4v0.3h3.5v1.7h-3.5v11.3H202.5z"/>
		<path class="st0" d="M217,382.6c-0.2,0.1-0.4,0.2-0.7,0.3c-0.3,0.1-0.7,0.2-1.1,0.3c-0.4,0.1-0.9,0.1-1.3,0.1
			c-0.5,0-1-0.1-1.5-0.3c-0.4-0.2-0.8-0.5-1.1-0.9c-0.3-0.4-0.4-0.9-0.4-1.5v-8.7h-1.8v-1.7h1.8v-4.3h2.2v4.3h2.9v1.7h-2.9v8.1
			c0,0.5,0.2,0.8,0.5,1c0.3,0.2,0.6,0.3,1,0.3c0.4,0,0.8-0.1,1.2-0.2s0.6-0.3,0.7-0.3L217,382.6z"/>
		<path class="st0" d="M235.4,370.2h2.1l-5.5,12.9h-1.9l-2.5-6.1l-2.5,6.1h-1.9l-5.5-12.9h2.1l4.5,10.8l2.1-5.3l-2.2-5.5h1.9
			l1.5,4.1l1.5-4.1h1.9l-2.2,5.5l2.1,5.3L235.4,370.2z"/>
		<path class="st0" d="M238.5,379.4c0-0.8,0.2-1.5,0.7-2.1c0.5-0.6,1.1-1.1,2-1.4s1.8-0.5,2.9-0.5c0.6,0,1.2,0,1.8,0.1
			c0.6,0.1,1.2,0.2,1.7,0.4V375c0-1-0.3-1.8-0.9-2.3c-0.6-0.6-1.4-0.8-2.5-0.8c-0.7,0-1.4,0.1-2.1,0.4s-1.3,0.6-2.1,1.1l-0.8-1.5
			c0.8-0.6,1.7-1,2.5-1.3c0.8-0.3,1.7-0.4,2.6-0.4c1.7,0,3,0.5,3.9,1.4c1,0.9,1.4,2.2,1.4,3.8v5.5c0,0.3,0.1,0.5,0.2,0.6
			c0.1,0.1,0.3,0.2,0.5,0.2v1.7c-0.2,0-0.4,0.1-0.6,0.1c-0.2,0-0.3,0-0.4,0c-0.5,0-0.9-0.1-1.2-0.4c-0.3-0.3-0.4-0.6-0.4-0.9l0-0.8
			c-0.6,0.7-1.3,1.3-2.2,1.7s-1.8,0.6-2.7,0.6c-0.9,0-1.6-0.2-2.3-0.5c-0.7-0.4-1.2-0.8-1.6-1.4
			C238.7,380.8,238.5,380.1,238.5,379.4z M247,380.3c0.2-0.2,0.4-0.5,0.5-0.7c0.1-0.2,0.2-0.4,0.2-0.6v-1.6
			c-0.5-0.2-1.1-0.3-1.6-0.5c-0.6-0.1-1.1-0.2-1.7-0.2c-1.1,0-2,0.2-2.7,0.7s-1,1-1,1.8c0,0.4,0.1,0.8,0.3,1.2
			c0.2,0.4,0.6,0.7,1,0.9c0.4,0.2,1,0.4,1.6,0.4c0.7,0,1.3-0.1,1.9-0.4C246.1,381.1,246.6,380.7,247,380.3z"/>
		<path class="st0" d="M260.2,372.1c-1.1,0-2.1,0.3-2.9,0.8c-0.8,0.5-1.4,1.3-1.8,2.2v8h-2.2v-12.9h2v2.9c0.4-0.9,1-1.6,1.8-2.2
			c0.7-0.6,1.5-0.9,2.3-0.9c0.2,0,0.3,0,0.4,0c0.1,0,0.2,0,0.3,0V372.1z"/>
		<path class="st0" d="M268.2,383.4c-1,0-1.9-0.2-2.7-0.5c-0.8-0.4-1.5-0.8-2.1-1.5c-0.6-0.6-1-1.3-1.4-2.1
			c-0.3-0.8-0.5-1.7-0.5-2.6c0-1.2,0.3-2.3,0.8-3.3c0.6-1,1.3-1.8,2.4-2.4c1-0.6,2.2-0.9,3.5-0.9c1.3,0,2.5,0.3,3.4,0.9
			c1,0.6,1.7,1.4,2.3,2.4c0.5,1,0.8,2.1,0.8,3.2c0,0.2,0,0.3,0,0.5c0,0.2,0,0.3,0,0.4h-10.8c0.1,0.8,0.3,1.6,0.7,2.2
			c0.4,0.6,0.9,1.2,1.6,1.5c0.6,0.4,1.3,0.6,2.1,0.6c0.8,0,1.5-0.2,2.3-0.6c0.7-0.4,1.2-0.9,1.5-1.6l1.9,0.5
			c-0.3,0.6-0.7,1.2-1.3,1.7c-0.6,0.5-1.2,0.9-2,1.2S269,383.4,268.2,383.4z M263.8,375.9h8.9c-0.1-0.8-0.3-1.6-0.7-2.2
			c-0.4-0.6-0.9-1.1-1.6-1.5c-0.6-0.4-1.4-0.5-2.1-0.5c-0.8,0-1.5,0.2-2.1,0.5s-1.2,0.9-1.6,1.5
			C264.1,374.3,263.8,375.1,263.8,375.9z"/>
		<path class="st0" d="M289.2,383.4c-1,0-1.9-0.2-2.7-0.5c-0.8-0.4-1.5-0.8-2.1-1.5c-0.6-0.6-1-1.3-1.4-2.1
			c-0.3-0.8-0.5-1.7-0.5-2.6c0-1.2,0.3-2.3,0.8-3.3c0.6-1,1.3-1.8,2.4-2.4c1-0.6,2.2-0.9,3.5-0.9c1.3,0,2.5,0.3,3.4,0.9
			c1,0.6,1.7,1.4,2.3,2.4c0.5,1,0.8,2.1,0.8,3.2c0,0.2,0,0.3,0,0.5c0,0.2,0,0.3,0,0.4h-10.8c0.1,0.8,0.3,1.6,0.7,2.2
			c0.4,0.6,0.9,1.2,1.6,1.5c0.6,0.4,1.3,0.6,2.1,0.6c0.8,0,1.5-0.2,2.3-0.6c0.7-0.4,1.2-0.9,1.5-1.6l1.9,0.5
			c-0.3,0.6-0.7,1.2-1.3,1.7c-0.6,0.5-1.2,0.9-2,1.2S290.1,383.4,289.2,383.4z M284.8,375.9h8.9c-0.1-0.8-0.3-1.6-0.7-2.2
			c-0.4-0.6-0.9-1.1-1.6-1.5c-0.6-0.4-1.4-0.5-2.1-0.5c-0.8,0-1.5,0.2-2.1,0.5s-1.2,0.9-1.6,1.5
			C285.1,374.3,284.9,375.1,284.8,375.9z"/>
		<path class="st0" d="M309.4,383.1h-2.2v-7.2c0-1.4-0.2-2.4-0.6-3c-0.4-0.6-1.1-1-1.9-1c-0.6,0-1.2,0.1-1.8,0.4
			c-0.6,0.3-1.1,0.7-1.6,1.2c-0.5,0.5-0.8,1.1-1,1.7v7.8h-2.2v-12.9h2v2.8c0.3-0.6,0.8-1.1,1.3-1.6c0.5-0.4,1.2-0.8,1.9-1
			c0.7-0.2,1.4-0.4,2.2-0.4c0.7,0,1.4,0.1,1.9,0.4c0.5,0.3,0.9,0.7,1.2,1.1s0.5,1.1,0.6,1.7s0.2,1.4,0.2,2.2V383.1z"/>
		<path class="st0" d="M318,383.4c-0.9,0-1.7-0.2-2.4-0.5c-0.7-0.4-1.4-0.8-1.9-1.5s-0.9-1.3-1.2-2.1c-0.3-0.8-0.4-1.6-0.4-2.5
			c0-0.9,0.1-1.8,0.4-2.6c0.3-0.8,0.7-1.5,1.2-2.2c0.5-0.6,1.2-1.1,1.9-1.5c0.7-0.4,1.5-0.5,2.4-0.5c1.1,0,2,0.3,2.8,0.8
			s1.5,1.2,2,2v-2.6h1.9V383c0,1.2-0.3,2.3-0.9,3.1c-0.6,0.8-1.4,1.5-2.4,1.9c-1,0.4-2.1,0.7-3.4,0.7c-1.5,0-2.7-0.3-3.6-0.8
			c-0.9-0.5-1.7-1.2-2.3-2.1l1.3-1.1c0.5,0.8,1.2,1.3,2,1.7s1.7,0.6,2.6,0.6c0.8,0,1.5-0.1,2.2-0.4c0.7-0.3,1.2-0.7,1.6-1.3
			c0.4-0.6,0.6-1.3,0.6-2.2v-2.3c-0.5,0.8-1.1,1.4-2,1.9C319.9,383.2,319,383.4,318,383.4z M318.7,381.6c0.5,0,0.9-0.1,1.3-0.2
			c0.4-0.2,0.8-0.4,1.2-0.7c0.4-0.3,0.7-0.6,0.9-0.9c0.2-0.3,0.4-0.7,0.5-1.1v-3.7c-0.2-0.6-0.6-1.1-1-1.6c-0.4-0.5-0.9-0.8-1.5-1.1
			c-0.5-0.3-1.1-0.4-1.7-0.4c-0.7,0-1.3,0.1-1.8,0.4c-0.5,0.3-1,0.7-1.3,1.1c-0.4,0.5-0.6,1-0.8,1.6c-0.2,0.6-0.3,1.2-0.3,1.8
			c0,0.6,0.1,1.3,0.3,1.8c0.2,0.6,0.5,1.1,0.9,1.5c0.4,0.4,0.9,0.8,1.4,1C317.5,381.5,318.1,381.6,318.7,381.6z"/>
		<path class="st0" d="M328.4,367.7V365h2.2v2.7H328.4z M328.4,383.1v-13h2.2v13H328.4z"/>
		<path class="st0" d="M345.4,383.1h-2.2v-7.2c0-1.4-0.2-2.4-0.6-3c-0.4-0.6-1.1-1-1.9-1c-0.6,0-1.2,0.1-1.8,0.4s-1.1,0.7-1.6,1.2
			c-0.5,0.5-0.8,1.1-1,1.7v7.8h-2.2v-12.9h2v2.8c0.3-0.6,0.8-1.1,1.3-1.6c0.5-0.4,1.2-0.8,1.9-1c0.7-0.2,1.4-0.4,2.2-0.4
			c0.7,0,1.4,0.1,1.9,0.4c0.5,0.3,0.9,0.7,1.2,1.1s0.5,1.1,0.6,1.7s0.2,1.4,0.2,2.2V383.1z"/>
		<path class="st0" d="M354.6,383.4c-1,0-1.9-0.2-2.7-0.5c-0.8-0.4-1.5-0.8-2.1-1.5c-0.6-0.6-1-1.3-1.4-2.1
			c-0.3-0.8-0.5-1.7-0.5-2.6c0-1.2,0.3-2.3,0.8-3.3s1.3-1.8,2.4-2.4c1-0.6,2.2-0.9,3.5-0.9c1.3,0,2.5,0.3,3.4,0.9
			c1,0.6,1.7,1.4,2.3,2.4c0.5,1,0.8,2.1,0.8,3.2c0,0.2,0,0.3,0,0.5c0,0.2,0,0.3,0,0.4h-10.8c0.1,0.8,0.3,1.6,0.7,2.2
			c0.4,0.6,0.9,1.2,1.6,1.5c0.6,0.4,1.3,0.6,2.1,0.6c0.8,0,1.5-0.2,2.3-0.6c0.7-0.4,1.2-0.9,1.5-1.6l1.9,0.5
			c-0.3,0.6-0.7,1.2-1.3,1.7s-1.2,0.9-2,1.2S355.5,383.4,354.6,383.4z M350.2,375.9h8.9c-0.1-0.8-0.3-1.6-0.7-2.2
			c-0.4-0.6-0.9-1.1-1.6-1.5c-0.6-0.4-1.4-0.5-2.1-0.5c-0.8,0-1.5,0.2-2.1,0.5c-0.6,0.4-1.2,0.9-1.6,1.5
			C350.5,374.3,350.3,375.1,350.2,375.9z"/>
		<path class="st0" d="M369.3,383.4c-1,0-1.9-0.2-2.7-0.5c-0.8-0.4-1.5-0.8-2.1-1.5c-0.6-0.6-1-1.3-1.4-2.1
			c-0.3-0.8-0.5-1.7-0.5-2.6c0-1.2,0.3-2.3,0.8-3.3s1.3-1.8,2.4-2.4c1-0.6,2.2-0.9,3.5-0.9c1.3,0,2.5,0.3,3.4,0.9
			c1,0.6,1.7,1.4,2.3,2.4c0.5,1,0.8,2.1,0.8,3.2c0,0.2,0,0.3,0,0.5c0,0.2,0,0.3,0,0.4H365c0.1,0.8,0.3,1.6,0.7,2.2
			c0.4,0.6,0.9,1.2,1.6,1.5c0.6,0.4,1.3,0.6,2.1,0.6c0.8,0,1.5-0.2,2.3-0.6c0.7-0.4,1.2-0.9,1.5-1.6l1.9,0.5
			c-0.3,0.6-0.7,1.2-1.3,1.7s-1.2,0.9-2,1.2S370.2,383.4,369.3,383.4z M364.9,375.9h8.9c-0.1-0.8-0.3-1.6-0.7-2.2
			c-0.4-0.6-0.9-1.1-1.6-1.5c-0.6-0.4-1.4-0.5-2.1-0.5c-0.8,0-1.5,0.2-2.1,0.5c-0.6,0.4-1.2,0.9-1.6,1.5
			C365.2,374.3,365,375.1,364.9,375.9z"/>
		<path class="st0" d="M385.2,372.1c-1.1,0-2.1,0.3-2.9,0.8c-0.8,0.5-1.4,1.3-1.8,2.2v8h-2.2v-12.9h2v2.9c0.4-0.9,1-1.6,1.8-2.2
			c0.7-0.6,1.5-0.9,2.3-0.9c0.2,0,0.3,0,0.4,0s0.2,0,0.3,0V372.1z"/>
		<path class="st0" d="M387.3,367.7V365h2.2v2.7H387.3z M387.3,383.1v-13h2.2v13H387.3z"/>
		<path class="st0" d="M404.4,383.1h-2.2v-7.2c0-1.4-0.2-2.4-0.6-3c-0.4-0.6-1.1-1-1.9-1c-0.6,0-1.2,0.1-1.8,0.4s-1.1,0.7-1.6,1.2
			c-0.5,0.5-0.8,1.1-1,1.7v7.8h-2.2v-12.9h2v2.8c0.3-0.6,0.8-1.1,1.3-1.6c0.5-0.4,1.2-0.8,1.9-1c0.7-0.2,1.4-0.4,2.2-0.4
			c0.7,0,1.4,0.1,1.9,0.4c0.5,0.3,0.9,0.7,1.2,1.1s0.5,1.1,0.6,1.7s0.2,1.4,0.2,2.2V383.1z"/>
		<path class="st0" d="M413,383.4c-0.9,0-1.7-0.2-2.4-0.5c-0.7-0.4-1.4-0.8-1.9-1.5s-0.9-1.3-1.2-2.1c-0.3-0.8-0.4-1.6-0.4-2.5
			c0-0.9,0.1-1.8,0.4-2.6c0.3-0.8,0.7-1.5,1.2-2.2s1.2-1.1,1.9-1.5c0.7-0.4,1.5-0.5,2.4-0.5c1.1,0,2,0.3,2.8,0.8
			c0.8,0.5,1.5,1.2,2,2v-2.6h1.9V383c0,1.2-0.3,2.3-0.9,3.1c-0.6,0.8-1.4,1.5-2.4,1.9s-2.1,0.7-3.4,0.7c-1.5,0-2.7-0.3-3.6-0.8
			c-0.9-0.5-1.7-1.2-2.3-2.1l1.3-1.1c0.5,0.8,1.2,1.3,2,1.7s1.7,0.6,2.6,0.6c0.8,0,1.5-0.1,2.2-0.4c0.7-0.3,1.2-0.7,1.6-1.3
			c0.4-0.6,0.6-1.3,0.6-2.2v-2.3c-0.5,0.8-1.1,1.4-2,1.9S413.9,383.4,413,383.4z M413.6,381.6c0.5,0,0.9-0.1,1.3-0.2
			c0.4-0.2,0.8-0.4,1.2-0.7c0.4-0.3,0.7-0.6,0.9-0.9c0.2-0.3,0.4-0.7,0.5-1.1v-3.7c-0.2-0.6-0.6-1.1-1-1.6s-0.9-0.8-1.5-1.1
			s-1.1-0.4-1.7-0.4c-0.7,0-1.3,0.1-1.8,0.4c-0.5,0.3-1,0.7-1.3,1.1s-0.6,1-0.8,1.6c-0.2,0.6-0.3,1.2-0.3,1.8c0,0.6,0.1,1.3,0.3,1.8
			c0.2,0.6,0.5,1.1,0.9,1.5c0.4,0.4,0.9,0.8,1.4,1C412.4,381.5,413,381.6,413.6,381.6z"/>
		<path class="st0" d="M435.4,383.4c-1,0-1.9-0.2-2.7-0.5c-0.8-0.4-1.5-0.8-2.1-1.5c-0.6-0.6-1-1.3-1.4-2.2
			c-0.3-0.8-0.5-1.7-0.5-2.6c0-1.2,0.3-2.3,0.8-3.3c0.5-1,1.3-1.8,2.3-2.4c1-0.6,2.2-0.9,3.5-0.9c1.3,0,2.4,0.3,3.4,0.9
			s1.7,1.3,2.1,2.3l-2.1,0.7c-0.3-0.6-0.8-1.1-1.4-1.4c-0.6-0.3-1.3-0.5-2-0.5c-0.8,0-1.5,0.2-2.2,0.6c-0.7,0.4-1.2,1-1.6,1.7
			c-0.4,0.7-0.6,1.5-0.6,2.5c0,0.9,0.2,1.7,0.6,2.5c0.4,0.7,0.9,1.3,1.6,1.7c0.7,0.4,1.4,0.6,2.2,0.6c0.5,0,1-0.1,1.5-0.3
			c0.5-0.2,0.9-0.4,1.2-0.7c0.4-0.3,0.6-0.6,0.7-1l2.1,0.6c-0.3,0.6-0.7,1.2-1.2,1.7s-1.2,0.9-1.9,1.2
			C437.1,383.2,436.3,383.4,435.4,383.4z"/>
		<path class="st0" d="M449.1,383.4c-1,0-1.9-0.2-2.7-0.5c-0.8-0.4-1.5-0.8-2.1-1.5s-1-1.3-1.3-2.1c-0.3-0.8-0.5-1.7-0.5-2.5
			c0-0.9,0.2-1.8,0.5-2.6c0.3-0.8,0.8-1.5,1.3-2.1s1.3-1.1,2.1-1.5s1.7-0.5,2.7-0.5c1,0,1.9,0.2,2.7,0.5c0.8,0.4,1.5,0.8,2.1,1.5
			s1,1.3,1.4,2.1c0.3,0.8,0.5,1.7,0.5,2.6c0,0.9-0.2,1.7-0.5,2.5c-0.3,0.8-0.8,1.5-1.3,2.1c-0.6,0.6-1.3,1.1-2.1,1.5
			C451,383.2,450.1,383.4,449.1,383.4z M444.8,376.7c0,0.9,0.2,1.7,0.6,2.4c0.4,0.7,0.9,1.3,1.6,1.7c0.6,0.4,1.4,0.6,2.2,0.6
			c0.8,0,1.5-0.2,2.2-0.6c0.7-0.4,1.2-1,1.6-1.7c0.4-0.7,0.6-1.5,0.6-2.4c0-0.9-0.2-1.7-0.6-2.4c-0.4-0.7-0.9-1.3-1.6-1.7
			s-1.4-0.6-2.2-0.6c-0.8,0-1.5,0.2-2.2,0.7c-0.6,0.4-1.2,1-1.6,1.7C445,375,444.8,375.8,444.8,376.7z"/>
		<path class="st0" d="M478,383.1h-2.2v-7.2c0-1.3-0.2-2.3-0.7-3c-0.4-0.6-1.1-1-2-1c-0.9,0-1.7,0.3-2.4,1c-0.7,0.6-1.2,1.5-1.5,2.5
			v7.8H467v-7.2c0-1.4-0.2-2.4-0.6-3s-1.1-1-1.9-1c-0.9,0-1.7,0.3-2.4,0.9c-0.7,0.6-1.2,1.4-1.5,2.5v7.8h-2.2v-12.9h2v2.8
			c0.5-1,1.2-1.7,2.1-2.2c0.8-0.5,1.8-0.8,2.9-0.8c1.1,0,1.9,0.3,2.6,0.9c0.6,0.6,1,1.3,1.2,2.3c0.6-1,1.3-1.8,2.1-2.3
			c0.8-0.5,1.8-0.8,2.8-0.8c0.7,0,1.4,0.1,1.9,0.4c0.5,0.3,0.9,0.7,1.2,1.1s0.5,1.1,0.6,1.7c0.1,0.7,0.2,1.4,0.2,2.2V383.1z"/>
		<path class="st0" d="M488.4,383.4c-1.1,0-2-0.3-2.8-0.8c-0.8-0.5-1.5-1.2-2-2v7.9h-2.2v-18.2h1.9v2.4c0.5-0.8,1.2-1.4,2-1.9
			c0.8-0.5,1.7-0.7,2.7-0.7c0.9,0,1.7,0.2,2.5,0.5c0.7,0.4,1.4,0.9,1.9,1.5c0.5,0.6,1,1.3,1.3,2.1s0.5,1.6,0.5,2.5
			c0,1.2-0.2,2.3-0.7,3.4c-0.5,1-1.2,1.8-2.1,2.4C490.5,383.1,489.5,383.4,488.4,383.4z M487.7,381.5c0.6,0,1.2-0.1,1.8-0.4
			c0.5-0.3,1-0.6,1.3-1.1c0.4-0.5,0.7-1,0.9-1.5c0.2-0.6,0.3-1.2,0.3-1.8c0-0.6-0.1-1.2-0.3-1.8c-0.2-0.6-0.5-1.1-0.9-1.5
			c-0.4-0.4-0.9-0.8-1.4-1s-1.1-0.4-1.8-0.4c-0.4,0-0.8,0.1-1.2,0.2c-0.4,0.1-0.8,0.4-1.2,0.6s-0.7,0.6-1,0.9s-0.4,0.7-0.5,1.1v3.7
			c0.2,0.6,0.6,1.1,1,1.5c0.4,0.5,0.9,0.8,1.4,1.1C486.6,381.4,487.1,381.5,487.7,381.5z"/>
		<path class="st0" d="M495.9,379.4c0-0.8,0.2-1.5,0.7-2.1c0.5-0.6,1.1-1.1,2-1.4c0.8-0.3,1.8-0.5,2.9-0.5c0.6,0,1.2,0,1.8,0.1
			c0.6,0.1,1.2,0.2,1.7,0.4V375c0-1-0.3-1.8-0.9-2.3c-0.6-0.6-1.4-0.8-2.5-0.8c-0.7,0-1.4,0.1-2.1,0.4s-1.3,0.6-2.1,1.1l-0.8-1.5
			c0.8-0.6,1.7-1,2.5-1.3c0.8-0.3,1.7-0.4,2.6-0.4c1.7,0,3,0.5,3.9,1.4c1,0.9,1.4,2.2,1.4,3.8v5.5c0,0.3,0.1,0.5,0.2,0.6
			c0.1,0.1,0.3,0.2,0.5,0.2v1.7c-0.2,0-0.4,0.1-0.6,0.1c-0.2,0-0.3,0-0.4,0c-0.5,0-0.9-0.1-1.2-0.4c-0.3-0.3-0.4-0.6-0.4-0.9l0-0.8
			c-0.6,0.7-1.3,1.3-2.2,1.7c-0.9,0.4-1.8,0.6-2.7,0.6c-0.9,0-1.6-0.2-2.3-0.5c-0.7-0.4-1.2-0.8-1.6-1.4
			C496.1,380.8,495.9,380.1,495.9,379.4z M504.3,380.3c0.2-0.2,0.4-0.5,0.5-0.7s0.2-0.4,0.2-0.6v-1.6c-0.5-0.2-1.1-0.3-1.6-0.5
			c-0.6-0.1-1.1-0.2-1.7-0.2c-1.1,0-2,0.2-2.7,0.7c-0.7,0.4-1,1-1,1.8c0,0.4,0.1,0.8,0.3,1.2c0.2,0.4,0.6,0.7,1,0.9
			c0.4,0.2,1,0.4,1.6,0.4c0.7,0,1.3-0.1,1.9-0.4C503.5,381.1,504,380.7,504.3,380.3z"/>
		<path class="st0" d="M522,383.1h-2.2v-7.2c0-1.4-0.2-2.4-0.6-3c-0.4-0.6-1.1-1-1.9-1c-0.6,0-1.2,0.1-1.8,0.4s-1.1,0.7-1.6,1.2
			c-0.5,0.5-0.8,1.1-1,1.7v7.8h-2.2v-12.9h2v2.8c0.3-0.6,0.8-1.1,1.3-1.6c0.5-0.4,1.2-0.8,1.9-1c0.7-0.2,1.4-0.4,2.2-0.4
			c0.7,0,1.4,0.1,1.9,0.4c0.5,0.3,0.9,0.7,1.2,1.1s0.5,1.1,0.6,1.7s0.2,1.4,0.2,2.2V383.1z"/>
		<path class="st0" d="M526,386.7c0.2,0,0.4,0,0.6,0.1c0.2,0,0.4,0,0.5,0c0.3,0,0.5-0.1,0.7-0.3s0.4-0.5,0.7-1.1
			c0.2-0.5,0.6-1.3,0.9-2.3l-5.5-13h2.3l4.4,10.7l4-10.7h2.2l-6.3,16.4c-0.1,0.4-0.4,0.7-0.7,1.1c-0.3,0.3-0.7,0.6-1.1,0.8
			c-0.4,0.2-1,0.3-1.6,0.3c-0.1,0-0.3,0-0.5,0c-0.2,0-0.4,0-0.6-0.1V386.7z"/>
	</g>
</g>
<g>
	<path class="st0" d="M136.9,344.7v-31H129v-6.3h7.8v-4.9c0-7.9,4.1-12.9,13.6-12.9h9.9v6.3H150c-4.5,0-5.9,2.1-5.9,6.7v4.7h15.2
		v6.3h-15.2v31H136.9z"/>
	<path class="st0" d="M164.4,312.8c0-3.7,1.7-5.5,5.3-5.4h17.8l0,6.3h-16v31h-7.2V312.8z"/>
	<path class="st0" d="M207.7,306.7c10.6,0,17.6,6.7,17.6,18.1v2.7h-28.8c0.3,6.4,3.5,11.9,12.1,11.9c5.7,0,9.5-2.7,10.8-7.8h7.2
		c-1.2,5.8-6,13.9-17.9,13.9c-13.4,0-19-9.2-19-19.9C189.6,313.6,197,306.7,207.7,306.7z M218.4,322.4c0-5.3-3.5-9.7-10.7-9.7
		c-7.1,0-11.1,4.4-11.1,9.7H218.4z"/>
	<path class="st0" d="M256.5,319.4c1.5-6.7,6.9-12.8,14.8-12.8c8.6,0,14,5.2,14,15.7v22.3h-7.2v-21.3c0-7.6-2.7-10.5-8.9-10.5
		c-7.5,0-12.7,5.6-12.7,15.7v16h-7.2v-55.1h7.2V319.4z"/>
	<path class="st0" d="M256.5,319.4c1.5-6.7,6.9-12.8,14.8-12.8c8.6,0,14,5.2,14,15.7v22.3h-7.2v-21.3c0-7.6-2.7-10.5-8.9-10.5
		c-7.5,0-12.7,5.6-12.7,15.7v16h-7.2v-55.1h7.2V319.4z"/>
	<path class="st0" d="M308.8,306.7c10.6,0,17.6,6.7,17.6,18.1v2.7h-28.8c0.3,6.4,3.5,11.9,12.1,11.9c5.7,0,9.5-2.7,10.8-7.8h7.2
		c-1.2,5.8-6,13.9-17.9,13.9c-13.4,0-19-9.2-19-19.9C290.7,313.6,298.2,306.7,308.8,306.7z M319.5,322.4c0-5.3-3.5-9.7-10.7-9.7
		c-7.1,0-11.1,4.4-11.1,9.7H319.5z"/>
	<g>
		<rect x="333.4" y="307.4" class="st0" width="6.9" height="37.3"/>
		<path class="st0" d="M331.2,296.5c0-3.1,2.4-5.3,5.6-5.3c3.3,0,5.8,2.2,5.8,5.3c0,3.1-2.4,5.4-5.8,5.4
			C333.5,301.9,331.2,299.6,331.2,296.5z"/>
	</g>
	<path class="st0" d="M348.7,296h7.2v11.4h11.7v6.3h-11.7v24.8H369v6.2h-15c-3.6,0.2-5.3-1.7-5.3-5.4V296z"/>
	<g>
		<rect x="232.9" y="307.4" class="st0" width="6.9" height="37.3"/>
		<path class="st0" d="M230.6,296.5c0-3.1,2.4-5.3,5.6-5.3c3.3,0,5.8,2.2,5.8,5.3c0,3.1-2.4,5.4-5.8,5.4
			C233,301.9,230.6,299.6,230.6,296.5z"/>
	</g>
	<path class="st0" d="M408.3,306.7c7.9,0,17.3,4.3,18.2,15.1H419c-0.9-6.4-5.4-8.8-10.7-8.8c-8.4,0-12.2,5.8-12.2,13
		c0,7.3,3.9,13.2,12.2,13.2c5.3,0,9.8-2.5,10.7-8.8h7.5c-0.8,10.8-10.3,15.1-18.2,15.1c-12.2,0-19.6-8.3-19.6-19.5
		C388.7,314.9,396.1,306.7,408.3,306.7z"/>
	<path class="st0" d="M450.8,306.7c12,0,20.2,8.1,20.2,19.3c0,11.4-8.2,19.5-20.2,19.5c-12.1,0-20.3-8.1-20.3-19.5
		C430.5,314.8,438.8,306.7,450.8,306.7z M450.8,339.2c8.2,0,12.8-5.6,12.8-13.2c0-7.4-4.6-13-12.8-13c-8.4,0-12.9,5.6-12.9,13
		C437.9,333.6,442.5,339.2,450.8,339.2z"/>
	<path class="st0" d="M375,340.1c0-3.1,2.4-5.3,5.6-5.3c3.3,0,5.8,2.2,5.8,5.3c0,3.1-2.4,5.4-5.8,5.4
		C377.3,345.5,375,343.2,375,340.1z"/>
	<path class="st0" d="M523.5,306.7c-8,0-12.7,6-14.2,12.8l-0.1,0.4c-0.6-8.8-4.3-13.2-12.1-13.2c-8,0-12.7,6-14.2,12.8v-12h-7.2
		v37.3h7.2v-16c0-10.1,3.7-15.7,11.2-15.7c5.1,0,8,3.5,8,10.5v21.3h0.1h7.1h0v-16c0-10.1,4-15.7,11.5-15.7c5.1,0,7.7,3.6,7.7,10.5
		v21.3h7.2v-22.3C535.8,311.8,532.1,306.7,523.5,306.7z"/>
	<path class="st0" d="M332.4,223c-41.1,0-75.7-18.9-75.7-41.3s34.7-41.3,75.7-41.3s75.7,18.9,75.7,41.3S373.5,223,332.4,223z
		 M392.5,144.1c-14.8-8.5-34.1-13.5-54.7-14.3v-17.3H327v17.3c-20.6,0.7-39.8,5.7-54.7,14.3c-17.1,9.8-26.5,23.2-26.5,37.7
		s9.4,27.9,26.5,37.7c14.8,8.5,34.1,13.5,54.7,14.3V252h10.8v-18.3c20.6-0.7,39.8-5.7,54.7-14.3c17.1-9.8,26.5-23.2,26.5-37.7
		S409.5,153.9,392.5,144.1z"/>
</g>
</svg>
