<?xml version="1.0" encoding="UTF-8" standalone="no"?>
<!-- Created with Inkscape (http://www.inkscape.org/) -->

<svg
   version="1.1"
   id="svg1"
   width="634.46667"
   height="189.88"
   viewBox="0 0 634.46667 189.88"
   sodipodi:docname="Copy of Copy of Copy of RGB_principal Azul.eps"
   xmlns:inkscape="http://www.inkscape.org/namespaces/inkscape"
   xmlns:sodipodi="http://sodipodi.sourceforge.net/DTD/sodipodi-0.dtd"
   xmlns="http://www.w3.org/2000/svg"
   xmlns:svg="http://www.w3.org/2000/svg">
  <defs
     id="defs1" />
  <sodipodi:namedview
     id="namedview1"
     pagecolor="#ffffff"
     bordercolor="#000000"
     borderopacity="0.25"
     inkscape:showpageshadow="2"
     inkscape:pageopacity="0.0"
     inkscape:pagecheckerboard="0"
     inkscape:deskcolor="#d1d1d1">
    <inkscape:page
       x="0"
       y="0"
       inkscape:label="1"
       id="page1"
       width="634.46667"
       height="189.88"
       margin="0"
       bleed="0" />
  </sodipodi:namedview>
  <g
     id="g1"
     inkscape:groupmode="layer"
     inkscape:label="1">
    <g
       id="group-R5">
      <path
         id="path2"
         d="m 1862.65,866.949 v 266.321 c 25.36,6.12 50.47,9.11 76.27,9.11 48.61,0 75.44,-27.07 75.44,-76.32 V 921.32 c 0,-49.23 -26.83,-76.359 -75.44,-76.359 -31.22,0 -56.86,7.379 -76.27,21.988 z m -54.44,-313.211 c 30.01,0 54.43,24.403 54.43,54.41 v 145.563 c 24.7,-8.68 50.25,-13.141 76.27,-13.141 108.44,0 184.2,76.168 184.2,185.102 v 136.018 c 0,108.95 -75.76,185.06 -184.2,185.06 -49.59,0 -96.92,-7.83 -140.95,-23.44 -26.81,-9.88 -44.15,-34.04 -44.15,-61.62 V 608.16 c 0.01,-30.019 24.39,-54.422 54.4,-54.422"
         style="fill:#353b97;fill-opacity:1;fill-rule:nonzero;stroke:none"
         transform="matrix(0.13333333,0,0,-0.13333333,0,189.88)" />
      <path
         id="path3"
         d="m 2434.58,1186.24 c 0,25.57 -18.77,48.38 -43.26,52.96 -24.25,5.1 -46.56,7.55 -68.17,7.55 -80.8,0 -139.45,-61.24 -139.45,-145.6 V 794.988 c 0,-29.968 24.36,-54.41 54.39,-54.41 29.95,0 54.37,24.442 54.37,54.41 v 308.772 c 0,22.72 11.75,36.84 30.69,36.84 11.56,0 22.8,-1.17 38.07,-4.03 1.47,-0.21 2.88,-0.6 4.24,-0.87 4.1,-0.92 9.19,-2.05 14.74,-2.05 30.49,-0.01 54.38,23.05 54.38,52.59"
         style="fill:#353b97;fill-opacity:1;fill-rule:nonzero;stroke:none"
         transform="matrix(0.13333333,0,0,-0.13333333,0,189.88)" />
      <path
         id="path4"
         d="m 2551.22,1054.61 v 11.45 c 0,49.89 26.47,76.32 76.36,76.32 48.63,0 75.44,-27.09 75.44,-76.32 v -11.45 z m 76.36,-314.04 c 48.89,0 94.73,10.321 136.45,30.739 18.9,9.429 30.2,27.472 30.2,48.23 0,29.5 -23.89,52.641 -54.33,52.641 -9.32,0 -16.36,-2.391 -22.25,-4.758 -34.49,-15.274 -63.07,-22.481 -90.08,-22.481 -48.48,0 -76.36,29.438 -76.36,80.731 v 24.547 H 2746 c 36.24,0 65.76,29.562 65.76,65.841 v 45.63 c 0,108.93 -75.7,185.06 -184.18,185.06 -108.91,0 -185.08,-76.13 -185.08,-185.06 V 925.672 c 0,-108.953 76.17,-185.102 185.08,-185.102"
         style="fill:#353b97;fill-opacity:1;fill-rule:nonzero;stroke:none"
         transform="matrix(0.13333333,0,0,-0.13333333,0,189.88)" />
      <path
         id="path5"
         d="m 3458.36,1071.33 c 0,96.73 -78.32,175.42 -174.6,175.42 -42.25,0 -85.02,-12.07 -122.37,-34.28 -29.05,22.21 -66.21,34.28 -106.56,34.28 -49.19,0 -95.13,-8.57 -144.91,-27.11 -25.49,-9.94 -41.96,-33.7 -41.96,-60.6 V 794.988 c 0,-29.968 24.42,-54.41 54.41,-54.41 29.91,0 54.33,24.442 54.33,54.41 v 337.182 c 25.06,6.97 50.25,10.22 78.13,10.22 21.86,0 54.35,-10.07 54.35,-37.71 V 794.988 c 0,-29.968 24.42,-54.41 54.43,-54.41 29.46,0 53.52,24.442 53.52,54.41 v 328.962 c 20.01,11.94 43.22,18.43 66.63,18.43 36.3,0 65.78,-29.9 65.78,-66.66 V 794.988 c 0,-29.968 24.42,-54.41 54.41,-54.41 29.97,0 54.41,24.442 54.41,54.41 v 276.342"
         style="fill:#353b97;fill-opacity:1;fill-rule:nonzero;stroke:none"
         transform="matrix(0.13333333,0,0,-0.13333333,0,189.88)" />
      <path
         id="path6"
         d="m 3591.71,1246.74 c -29.97,0 -54.39,-24.4 -54.39,-54.33 V 794.969 c 0,-29.969 24.42,-54.41 54.39,-54.41 30.03,0 54.41,24.441 54.41,54.41 v 397.451 c 0,29.92 -24.38,54.32 -54.41,54.32"
         style="fill:#353b97;fill-opacity:1;fill-rule:nonzero;stroke:none"
         transform="matrix(0.13333333,0,0,-0.13333333,0,189.88)" />
      <path
         id="path7"
         d="m 3591.71,1293.26 c 35.34,0 64.12,29.09 64.12,64.91 0,35.3 -28.77,64.01 -64.12,64.01 -35.28,0 -64.05,-28.71 -64.05,-64.01 -0.01,-35.81 28.77,-64.91 64.05,-64.91"
         style="fill:#353b97;fill-opacity:1;fill-rule:nonzero;stroke:none"
         transform="matrix(0.13333333,0,0,-0.13333333,0,189.88)" />
      <path
         id="path8"
         d="m 4040.01,1246.75 c -29.99,0 -54.39,-24.4 -54.39,-54.35 V 854.09 c -24.64,-6.02 -50.4,-9.149 -75.48,-9.149 -49.96,0 -76.3,26.45 -76.3,76.379 v 271.08 c 0,29.95 -24.4,54.35 -54.35,54.35 -30.01,0 -54.39,-24.4 -54.39,-54.35 V 925.648 c 0,-112.32 72.65,-185.078 185.04,-185.078 46.95,0 94.13,7.828 140.26,23.231 25.85,8.597 43.94,34.058 43.94,61.879 v 366.72 c -0.01,29.95 -24.32,54.35 -54.33,54.35"
         style="fill:#353b97;fill-opacity:1;fill-rule:nonzero;stroke:none"
         transform="matrix(0.13333333,0,0,-0.13333333,0,189.88)" />
      <path
         id="path9"
         d="m 4583.89,1246.75 c -42.23,0 -85,-12.07 -122.41,-34.28 -29.03,22.21 -66.17,34.28 -106.56,34.28 -49.17,0 -95.13,-8.57 -144.81,-27.11 -25.53,-9.94 -42.02,-33.7 -42.02,-60.6 V 794.988 c 0,-29.968 24.38,-54.41 54.37,-54.41 30.01,0 54.37,24.442 54.37,54.41 v 337.182 c 25.06,6.97 50.34,10.22 78.09,10.22 21.91,0 54.39,-10.07 54.39,-37.71 V 794.988 c 0,-29.968 24.4,-54.41 54.41,-54.41 29.52,0 53.52,24.442 53.52,54.41 v 328.962 c 19.99,11.94 43.28,18.43 66.65,18.43 36.3,0 65.82,-29.9 65.82,-66.66 V 794.988 c 0,-29.968 24.4,-54.41 54.37,-54.41 29.97,0 54.37,24.442 54.37,54.41 v 276.342 c 0,96.73 -78.3,175.42 -174.56,175.42"
         style="fill:#353b97;fill-opacity:1;fill-rule:nonzero;stroke:none"
         transform="matrix(0.13333333,0,0,-0.13333333,0,189.88)" />
      <path
         id="path10"
         d="m 2169.61,506.16 c -42.21,0 -85,-12.09 -122.35,-34.23 -29.03,22.16 -66.17,34.23 -106.58,34.23 -49.21,0 -95.13,-8.601 -144.85,-27.109 -25.51,-9.922 -42,-33.723 -42,-60.602 V 54.3906 C 1753.83,24.4219 1778.19,0 1808.22,0 c 30.01,0 54.41,24.4219 54.41,54.3906 V 391.59 c 24.98,6.91 50.23,10.199 78.05,10.199 21.84,0 54.37,-10.051 54.37,-37.75 V 54.3984 c 0,-29.9687 24.42,-54.3866812 54.41,-54.3866812 29.5,0 53.5,24.4179812 53.5,54.3866812 V 383.352 c 20.01,11.968 43.3,18.449 66.65,18.449 36.28,0 65.78,-29.84 65.78,-66.68 V 54.3984 c 0,-29.9687 24.44,-54.3866812 54.41,-54.3866812 29.99,0 54.37,24.4179812 54.37,54.3866812 V 330.75 c 0.01,96.699 -78.27,175.41 -174.56,175.41"
         style="fill:#353b97;fill-opacity:1;fill-rule:nonzero;stroke:none"
         transform="matrix(0.13333333,0,0,-0.13333333,0,189.88)" />
      <path
         id="path11"
         d="m 2477.61,681.59 c -35.32,0 -64.08,-28.692 -64.08,-64.012 0,-35.75 28.75,-64.93 64.08,-64.93 35.28,0 63.99,29.18 63.99,64.93 -0.01,35.32 -28.72,64.012 -63.99,64.012"
         style="fill:#353b97;fill-opacity:1;fill-rule:nonzero;stroke:none"
         transform="matrix(0.13333333,0,0,-0.13333333,0,189.88)" />
      <path
         id="path12"
         d="m 2477.61,506.148 c -29.99,0 -54.39,-24.378 -54.39,-54.367 V 54.3906 c 0,-29.9687 24.4,-54.3710687 54.39,-54.3710687 29.88,0 54.41,24.4023687 54.41,54.3710687 V 451.781 c 0,29.989 -24.53,54.367 -54.41,54.367"
         style="fill:#353b97;fill-opacity:1;fill-rule:nonzero;stroke:none"
         transform="matrix(0.13333333,0,0,-0.13333333,0,189.88)" />
      <path
         id="path13"
         d="m 2800.44,506.16 c -50.51,0 -97.95,-7.871 -140.99,-23.422 -26.75,-9.879 -44.15,-34.109 -44.15,-61.636 V 54.3984 c 0,-29.9687 24.4,-54.3866812 54.43,-54.3866812 29.97,0 54.33,24.4179812 54.33,54.3866812 V 392.77 c 24.81,6 50.32,9.019 76.38,9.019 48.63,0 75.48,-27.051 75.48,-76.32 V 54.3906 C 2875.92,24.4219 2900.26,0 2930.25,0 c 29.97,0 54.35,24.4219 54.35,54.3906 V 321.102 c 0.01,108.949 -75.69,185.058 -184.16,185.058"
         style="fill:#353b97;fill-opacity:1;fill-rule:nonzero;stroke:none"
         transform="matrix(0.13333333,0,0,-0.13333333,0,189.88)" />
      <path
         id="path14"
         d="M 3296.98,379.82 V 113.43 c -24.72,-5.969 -50.31,-9.039 -76.32,-9.039 -48.67,0 -75.47,27.129 -75.47,76.3 V 325.48 c 0,49.27 26.79,76.321 75.47,76.321 31.23,-0.012 56.87,-7.352 76.32,-21.981 z m 54.35,301.77 c -29.97,0 -54.35,-24.34 -54.35,-54.371 V 493.031 c -24.76,8.699 -50.31,13.117 -76.32,13.117 -110.21,0 -184.24,-74.378 -184.24,-185.058 V 185.129 c 0,-109.0587 75.74,-185.1172812 184.24,-185.1172812 47.54,0 93.38,7.5664112 139.84,23.0780812 26.6,8.3594 45.24,33.8907 45.24,61.9883 V 627.219 c 0,30.031 -24.4,54.371 -54.41,54.371"
         style="fill:#353b97;fill-opacity:1;fill-rule:nonzero;stroke:none"
         transform="matrix(0.13333333,0,0,-0.13333333,0,189.88)" />
      <path
         id="path15"
         d="m 3677.24,293.82 -82.35,33.301 c -18.98,7.789 -28.58,20.52 -28.58,37.82 0,35.071 42.36,36.86 50.83,36.86 29.14,0 57.03,-5.84 82.14,-17.512 4.71,-1.859 11.97,-4.418 20.54,-4.418 30.48,0 54.37,22.777 54.37,51.731 0,21.738 -12.54,41.078 -33.06,50.527 -36.67,16.172 -74.91,24.043 -116.95,24.043 -96.58,0 -166.65,-60.512 -166.65,-143.871 0,-63.129 30.69,-108.18 91.46,-134.039 l 82.25,-34.153 c 34.06,-14.589 40.36,-28.07 40.36,-49.359 0,-26.469 -26.96,-40.379 -53.56,-40.379 -26.7,0 -52.55,6.141 -84.76,20.238 l -1.69,0.621 c -4.65,1.981 -11.07,4.59 -19.67,4.59 -30.5,0 -54.39,-23.082 -54.39,-52.6208 0,-21.7383 11.9,-40.2695 31.59,-49.3789 39.5,-18.66014 80.84,-27.8085812 126.27,-27.8085812 94.04,0 164.94,66.4179812 164.94,154.4102812 -0.01,61.457 -38.59,113.629 -103.09,139.398"
         style="fill:#353b97;fill-opacity:1;fill-rule:nonzero;stroke:none"
         transform="matrix(0.13333333,0,0,-0.13333333,0,189.88)" />
      <path
         id="path16"
         d="m 1378.91,883.84 v 44.199 c 0,120.571 -70.83,224.541 -173.12,272.681 l -379.661,190.2 -0.578,0.05 c -41.172,21.14 -87.813,33.12 -137.27,33.12 -48.41,0 -94.101,-11.48 -134.621,-31.76 l -0.269,-0.04 -385.211,-193.73 -0.239,-0.35 c -21.371,-10.57 -41.242,-23.7 -59.351,-38.84 l 0.039,-0.24 c -9.1485,-8.15 -15.0079,-19.89 -15.0079,-33.14 0,-16.78 9.3909,-31.23 23.0899,-38.84 v -0.01 l 0.398,-0.19 c 1.5,-0.83 2.981,-1.68 4.571,-2.31 L 460.199,915.512 h 0.18 c 7.461,-3.742 15.859,-5.903 24.769,-5.903 8.911,0 17.293,2.141 24.731,5.871 h 0.16 l 129.133,64.961 0.109,0.008 c 14.949,7.5 31.84,11.731 49.731,11.731 0.136,0 0.289,-0.008 0.437,-0.008 v 0.019 c 18.121,-0.062 35.18,-4.472 50.281,-12.222 l 0.2,-0.028 140.242,-70.261 c 37.777,-17.782 63.949,-56.18 63.949,-100.711 v -16.328 h 0.008 V 667.48 c 0,-43.781 -25.301,-81.628 -62.051,-99.8 l -0.078,-0.141 -142.281,-71.57 -0.098,-0.008 c -14.98,-7.481 -31.883,-11.723 -49.742,-11.723 -0.16,0 -0.289,0.012 -0.438,0.012 v -0.012 c -18.132,0.063 -35.203,4.473 -50.281,12.211 l -0.199,0.012 -140.262,70.277 -423.6599,203.051 -0.1602,-0.098 c -6.8398,3.278 -14.457,5.149 -22.5391,5.149 C 23.4297,774.84 0,751.422 0,722.52 V 589.219 H 0.0117188 V 568.102 L 0,568.102 V 89.3906 C 0,41.1484 39.0781,2.07031 87.3203,2.07031 c 25.4607,0 48.3007,10.94919 64.2697,28.32029 L 278.891,157.699 c 15.3,13.973 35.55,22.59 57.898,22.59 13.832,0 26.859,-3.391 38.461,-9.211 l 177.52,-88.9374 0.609,-0.082 c 41.16,-21.1172 87.781,-33.1172 137.25,-33.1172 48.391,0 94.109,11.4883 134.641,31.7578 l 0.25,0.0391 385.21,193.7417 0.23,0.348 C 1310.44,324.031 1378.92,426.5 1378.92,545 v 338.84 h -0.01"
         style="fill:#353b97;fill-opacity:1;fill-rule:nonzero;stroke:none"
         transform="matrix(0.13333333,0,0,-0.13333333,0,189.88)" />
    </g>
  </g>
</svg>
