<?xml version="1.0" encoding="UTF-8"?>
<svg id="Logos" xmlns="http://www.w3.org/2000/svg" viewBox="0 0 905.06 300">
  <defs>
    <style>
      .cls-1 {
        fill: #12bd64;
      }
    </style>
  </defs>
  <g id="Vertical">
    <g>
      <g>
        <path class="cls-1" d="M117.83,239.87c7.17-27.38,14.35-54.76,21.63-82.55h-42.26c22.93-37.45,45.53-74.35,68.13-111.26.17.06.33.11.5.17-7.13,27.61-14.26,55.22-21.53,83.38h45.13c-24,37.22-47.6,73.84-71.21,110.45-.13-.06-.27-.12-.4-.18Z"/>
        <path class="cls-1" d="M2.62,0v.04H0v233.89h21.99V21.99h244.73v242.23H87.05l-4.82-.05c-2.55.04-3.43-1.37-3.75-1.83-.75-1.06-6.15-10.51-19.8-10.51s-23.89,10.7-23.89,23.89,10.7,24.28,23.89,24.28c14.15,0,19.03-9.5,19.74-10.56.39-.58,1.18-1.97,3.81-1.94h4.82s201.66,0,201.66,0V0H2.62Z"/>
      </g>
      <g>
        <path d="M542.7,226.88c0-11.79.05-23.58-.04-35.38-.02-2.1.68-2.92,2.72-3.39,11.4-2.61,22.9-3.98,34.59-3.13,5.6.4,10.66,2.4,14.93,6.08,1.28,1.11,2.15,1.09,3.57.22,9.82-5.94,20.44-8,31.72-5.73,11.16,2.25,18.23,10.11,19.74,21.89.56,4.34.92,8.73.96,13.1.12,13.95.01,27.9.09,41.85.01,2.04-.43,2.88-2.67,2.78-4.16-.18-8.34-.18-12.49,0-2.24.1-2.67-.75-2.66-2.78.08-13.64.1-27.28-.01-40.93-.03-3.36-.36-6.78-1.01-10.08-1.7-8.62-6.19-12.41-16.72-11.27-3.5.38-6.88,2.03-10.24,3.31-.6.23-1.22,1.5-1.16,2.24.44,5.42,1.44,10.83,1.54,16.25.23,13.48.05,26.97.12,40.46.01,2.02-.41,2.9-2.67,2.8-4.24-.18-8.49-.14-12.73-.01-1.94.06-2.48-.59-2.47-2.5.07-14.03.15-28.06-.05-42.08-.06-3.95-.8-7.95-1.72-11.81-1.35-5.67-5.48-8.56-11.09-8.76-4.35-.15-8.74.5-13.1.93-.53.05-1.21.87-1.4,1.47-.25.77-.11,1.68-.11,2.52,0,19.04,0,38.07,0,57.11,0,3.06-.01,3.07-3.03,3.07-4.01,0-8.03-.11-12.03.04-2.1.08-2.62-.72-2.61-2.68.07-11.87.03-23.74.03-35.61Z"/>
        <path d="M692.05,262.55c-.08,1.41-.19,2.4-.19,3.38-.01,8.17-.07,16.33.03,24.5.03,2.14-.47,3.04-2.81,2.93-4.08-.18-8.18-.15-12.26,0-2.04.07-2.66-.59-2.64-2.61.08-11.02.04-22.03.04-33.05,0-21.8,0-43.61,0-65.41,0-3.43,0-3.45,3.29-4.22,10.54-2.46,21.17-3.72,32.03-3.17,17.31.89,31.12,12.51,34.36,29.53,2.09,10.93,1.66,21.77-2.71,32.17-4.95,11.78-13.75,18.53-26.6,20.03-7.11.83-13.78-.43-20.27-3.16-.62-.26-1.25-.5-2.27-.9ZM691.82,224.01c0,6.85.04,13.7-.03,20.56-.02,1.77.5,3.03,2.18,3.61,3.26,1.12,6.47,2.76,9.82,3.16,10.2,1.21,17.9-1.85,21.35-13.04,2.29-7.43,2.33-15.03.43-22.54-1.85-7.32-6.03-12.78-13.69-14.8-5.83-1.54-11.71-1.33-17.63-.38-1.96.31-2.47,1.29-2.45,3.12.07,6.77.03,13.55.03,20.32Z"/>
        <path d="M365.98,107.02c5.52,1.78,10.61,3.84,15.9,5.01,7.33,1.63,14.8,1.92,22.18-.08,4.8-1.3,8.41-4.02,9.49-9.06,1.09-5.11.09-9.79-3.97-13.5-4.2-3.83-9.34-5.88-14.52-7.89-4.73-1.84-9.52-3.55-14.17-5.59-8.67-3.81-15.53-9.68-17.37-19.32-3.26-17.08,4.46-30.82,22.33-35.2,13.87-3.4,27.5-1.78,40.59,4.1,1.75.78,2,1.65,1.29,3.35-1.7,4.09-3.23,8.26-4.74,12.18-4.51-1.43-8.68-3.04-12.98-4.04-6.02-1.41-12.17-2.01-18.28-.31-4.6,1.28-8.21,3.82-9.15,8.76-1,5.22.48,9.72,4.86,13.1,4.72,3.64,10.31,5.44,15.7,7.71,5.73,2.41,11.61,4.7,16.92,7.87,10.71,6.4,13.98,16.54,13.12,28.5-.9,12.52-9.2,21.87-23.76,24.92-15.78,3.3-31.21,1.86-46.09-4.65-2.03-.89-2.63-1.8-1.72-3.99,1.65-3.96,2.98-8.05,4.37-11.87Z"/>
        <path d="M438.63,179.97c-5.77-1.68-11.05-3.65-16.51-4.71-9.4-1.83-18.6-1.03-26.86,4.44-7.45,4.93-11.31,12.28-13.09,20.75-2.09,9.95-1.75,19.92,1.32,29.64,4.13,13.09,14.54,20.64,28.38,20.99,9.05.22,17.8-1.09,26.07-4.97.54-.25,1.13-.38,1.99-.65,1.66,4.97,3.27,9.82,4.93,14.81-4.26,2.57-8.82,3.91-13.45,4.98-11.23,2.61-22.57,3.24-33.86.63-15.8-3.64-26.7-13.22-31.96-28.49-6.03-17.49-6.23-35.12,1.9-52.09,7.67-16,20.87-24.6,38.39-26.75,11.16-1.37,21.97.2,32.38,4.29,5.76,2.27,5.7,2.43,3.62,8.17-1.12,3.1-2.24,6.19-3.24,8.95Z"/>
        <path d="M553.83,80.02c1.68-12.26-4.01-19.72-17.59-19.04-5.79.29-11.54,1.62-17.3,2.47-.38.06-.76.09-1.39.16-.63-4.22-1.33-8.37-1.81-12.54-.07-.61.72-1.78,1.31-1.94,11.36-3.04,22.89-4.32,34.47-1.75,11.59,2.58,18.54,10.78,19.32,22.64.51,7.82.45,15.69.51,23.54.08,9.71-.02,19.42.05,29.12.01,1.78-.49,2.5-2.35,2.87-9.62,1.9-19.33,2.97-29.12,2.97-6.15,0-12.3-.48-18.13-2.84-8.78-3.56-13.19-10.27-13.96-19.49-.57-6.9.58-13.39,5.63-18.62,4.65-4.82,10.58-6.95,17.02-8.03,7.14-1.19,14.24-1.12,21.33.43.45.1.92.12,1.38.14.21.01.43-.06.63-.09ZM554.11,103.12c0-2.92.09-5.85-.06-8.76-.04-.68-.77-1.77-1.35-1.91-6.68-1.53-13.41-1.84-19.98.46-5.29,1.85-7.51,5.56-7.18,11.24.3,5.07,3.09,8.28,8.43,9.58,6.17,1.5,12.36.83,18.55.1,1.34-.16,1.63-.78,1.61-1.95-.05-2.92-.02-5.84-.02-8.77Z"/>
        <path d="M501.91,218.32c1.85-9.94-2.7-18.24-13.18-18.87-7.26-.43-14.46.14-21.47,2.26-.43.13-.89.16-1.55.27-.66-4.26-1.37-8.4-1.87-12.57-.07-.61.71-1.79,1.3-1.94,11.58-3.03,23.31-4.51,35.12-1.57,11.22,2.79,17.85,10.61,18.67,22.16.55,7.74.47,15.53.53,23.3.08,9.7-.03,19.41.06,29.12.02,2.09-.38,3.07-2.72,3.5-10.02,1.84-20.1,3.24-30.26,2.84-5.46-.21-11.07-1.13-16.26-2.82-8.97-2.93-13.92-10.83-14.41-20.31-.87-16.8,10.4-24.04,23.14-25.83,3.79-.53,7.66-.69,11.49-.61,3.81.09,7.61.7,11.42,1.08ZM502.24,241.68c0-3.01.08-6.02-.07-9.01-.03-.67-.79-1.74-1.39-1.88-6.62-1.56-13.28-1.81-19.81.4-5.17,1.75-7.53,5.35-7.37,10.7.17,5.35,2.77,8.66,8.16,10.08,6.24,1.63,12.53.98,18.82.22,1.41-.17,1.7-.92,1.67-2.18-.07-2.77-.02-5.55-.02-8.32Z"/>
        <path d="M829.18,224.79c0,11.79-.03,23.58.03,35.37.01,1.89-.37,2.82-2.47,3.28-10.79,2.37-21.67,3.98-32.74,3.47-15.15-.7-26.88-7.84-29.33-25.9-.56-4.1-.84-8.27-.88-12.4-.11-13.18,0-26.36-.08-39.53-.01-2.04.42-2.88,2.66-2.78,4.16.18,8.33.18,12.49,0,2.25-.1,2.67.75,2.66,2.78-.08,12.72-.2,25.43.04,38.14.09,4.8.65,9.69,1.82,14.33,1.65,6.56,6.49,9.94,13.28,9.98,4,.02,8-.28,12-.47,1.97-.09,2.84-.89,2.83-3.14-.1-19.57-.03-39.15-.1-58.72,0-2.14.44-3.01,2.77-2.9,4.16.19,8.33.17,12.49,0,2.12-.08,2.57.69,2.55,2.65-.08,11.94-.04,23.89-.04,35.83Z"/>
        <path d="M897.97,201.91c-4.2-.96-8.05-2.34-11.97-2.61-4.54-.32-9.2.05-13.72.66-2.83.39-5.11,2.29-5.59,5.43-.55,3.58.48,6.68,3.78,8.48,3.03,1.65,6.25,2.93,9.38,4.41,5.48,2.59,11.19,4.81,16.37,7.91,10.88,6.52,10.83,23.56,4.64,31.21-4.1,5.08-9.76,7.5-15.94,8.56-11.93,2.04-23.75,1.55-35.32-2.4-1.88-.64-2.33-1.49-1.87-3.38.96-3.93,1.7-7.92,2.54-11.9,4.44,1.19,8.59,2.84,12.87,3.31,5.61.62,11.34.57,16.99.28,3.13-.16,5.96-1.72,6.76-5.32.81-3.64-.33-6.94-3.74-8.91-3.51-2.03-7.3-3.6-10.99-5.32-4.32-2.01-8.84-3.66-12.96-6-8.13-4.63-11.02-12.1-10.24-21.13.72-8.26,5.23-13.94,12.59-17.47,4.43-2.12,9.16-3.03,14.07-3.24,7.84-.34,15.49.71,23.04,2.78,1.85.51,2.48,1.19,1.9,3.23-1.06,3.75-1.76,7.6-2.61,11.42Z"/>
        <path d="M672.72,24.1c0,1.08,0,1.9,0,2.72,0,6.17.1,12.33-.05,18.5-.06,2.28.72,2.84,2.89,2.81,7.64-.12,15.27,0,22.91-.08,1.85-.02,2.63.43,2.53,2.43-.16,3.23-.14,6.48,0,9.71.08,1.9-.51,2.55-2.46,2.53-7.64-.09-15.28.04-22.91-.08-2.34-.04-2.99.66-2.97,3.02.13,10.79-.01,21.58.12,32.37.03,2.58.5,5.22,1.23,7.7,1.42,4.83,5.1,7.38,10.13,7.63,5.06.26,9.99-.31,14.78-1.98.63-.22,1.29-.37,2.19-.63.9,4.3,1.82,8.4,2.56,12.52.1.54-.6,1.61-1.17,1.83-7.64,3.02-15.54,4.35-23.74,3.3-2.36-.3-4.75-.61-7.01-1.29-9.27-2.79-14.2-9.47-15.73-18.68-.77-4.6-1.04-9.33-1.06-14-.11-21.5-.01-43-.1-64.51,0-2.19.56-3.12,2.78-3.41,4.93-.65,9.83-1.54,15.07-2.39Z"/>
        <path d="M466.72,24.09c0,4.16,0,8,0,11.83,0,3.31.08,6.63-.03,9.94-.06,1.76.63,2.25,2.3,2.24,7.79-.06,15.59.04,23.38-.07,1.98-.03,2.76.45,2.64,2.56-.17,3.23-.14,6.48,0,9.71.08,1.83-.53,2.42-2.36,2.4-7.56-.08-15.12-.04-22.68-.03-3.23,0-3.24.01-3.24,3.13,0,10.41-.1,20.81.07,31.22.05,2.96.56,5.99,1.39,8.83,1.38,4.73,5.07,7.24,9.99,7.48,4.98.25,9.84-.23,14.56-1.91.71-.25,1.45-.44,2.49-.75.9,4.4,1.81,8.64,2.58,12.9.08.42-.51,1.26-.97,1.44-7.64,3-15.54,4.46-23.74,3.36-3.25-.44-6.59-1-9.62-2.19-8.22-3.21-12.07-9.95-13.47-18.23-.62-3.7-.96-7.49-.97-11.24-.09-22.43-.03-44.86-.09-67.29,0-1.76.35-2.56,2.31-2.82,5.02-.66,10-1.61,15.46-2.53Z"/>
        <path d="M639.39,63.19c-5.69-.54-11.09-1.27-16.5-1.47-2.87-.11-5.77.7-8.66,1.08-1.62.21-2.1,1.13-2.08,2.7.07,6.39.03,12.79.03,19.18,0,13.17-.04,26.34.04,39.51.01,2.13-.61,2.79-2.75,2.71-4.31-.16-8.63-.1-12.95-.02-1.57.03-2.16-.42-2.16-2.08.05-23.72.04-47.45,0-71.17,0-1.4.5-2.02,1.81-2.47,9.48-3.21,19.25-4.98,29.23-4.77,5.02.1,10.02,1.38,15.03,2.11,1.46.21,1.88.85,1.52,2.38-.98,4.18-1.76,8.4-2.56,12.31Z"/>
      </g>
    </g>
  </g>
</svg>