<svg xmlns="http://www.w3.org/2000/svg" viewBox="0 0 290.94 290.94"><defs><style>.cls-1{fill:#fcbd14;}</style></defs><g id="Layer_2" data-name="Layer 2"><g id="estrelas_jogos_amarelas" data-name="estrelas jogos amarelas"><rect class="cls-1" x="134.28" y="134.28" width="22.38" height="22.38"/><rect class="cls-1" x="134.28" y="111.9" width="22.38" height="22.38"/><rect class="cls-1" x="111.9" y="111.9" width="22.38" height="22.38"/><rect class="cls-1" x="111.9" y="156.66" width="22.38" height="22.38"/><rect class="cls-1" x="156.66" y="156.66" width="22.38" height="22.38"/><rect class="cls-1" x="89.52" y="179.04" width="22.38" height="22.38"/><rect class="cls-1" x="67.14" y="201.42" width="22.38" height="22.38"/><rect class="cls-1" x="156.66" y="111.9" width="22.38" height="22.38"/><rect class="cls-1" x="179.04" y="89.52" width="22.38" height="22.38"/><rect class="cls-1" x="201.42" y="67.14" width="22.38" height="22.38"/><rect class="cls-1" x="179.04" y="179.04" width="22.38" height="22.38"/><rect class="cls-1" x="201.42" y="201.42" width="22.38" height="22.38"/><rect class="cls-1" x="89.52" y="89.52" width="22.38" height="22.38"/><rect class="cls-1" x="67.14" y="67.14" width="22.38" height="22.38"/><rect class="cls-1" x="134.28" y="89.52" width="22.38" height="22.38"/><rect class="cls-1" x="134.28" y="67.14" width="22.38" height="22.38"/><rect class="cls-1" x="134.28" y="44.76" width="22.38" height="22.38"/><rect class="cls-1" x="134.28" y="22.38" width="22.38" height="22.38"/><rect class="cls-1" x="134.28" width="22.38" height="22.38"/><rect class="cls-1" x="134.28" y="223.8" width="22.38" height="22.38"/><rect class="cls-1" x="134.28" y="201.42" width="22.38" height="22.38"/><rect class="cls-1" x="134.28" y="268.56" width="22.38" height="22.38"/><rect class="cls-1" x="134.28" y="246.18" width="22.38" height="22.38"/><rect class="cls-1" x="134.28" y="179.04" width="22.38" height="22.38"/><rect class="cls-1" x="134.28" y="156.66" width="22.38" height="22.38"/><rect class="cls-1" x="44.76" y="134.28" width="22.38" height="22.38" transform="translate(201.42 89.52) rotate(90)"/><rect class="cls-1" x="67.14" y="134.28" width="22.38" height="22.38" transform="translate(223.8 67.14) rotate(90)"/><rect class="cls-1" y="134.28" width="22.38" height="22.38" transform="translate(156.66 134.28) rotate(90)"/><rect class="cls-1" x="22.38" y="134.28" width="22.38" height="22.38" transform="translate(179.04 111.9) rotate(90)"/><rect class="cls-1" x="89.52" y="134.28" width="22.38" height="22.38" transform="translate(246.18 44.76) rotate(90)"/><rect class="cls-1" x="111.9" y="134.28" width="22.38" height="22.38" transform="translate(268.56 22.38) rotate(90)"/><rect class="cls-1" x="156.66" y="134.28" width="22.38" height="22.38" transform="translate(313.32 -22.38) rotate(90)"/><rect class="cls-1" x="179.04" y="134.28" width="22.38" height="22.38" transform="translate(335.7 -44.76) rotate(90)"/><rect class="cls-1" x="201.42" y="134.28" width="22.38" height="22.38" transform="translate(358.09 -67.14) rotate(90)"/><rect class="cls-1" x="223.8" y="134.28" width="22.38" height="22.38" transform="translate(380.47 -89.52) rotate(90)"/><rect class="cls-1" x="246.18" y="134.28" width="22.38" height="22.38" transform="translate(402.85 -111.9) rotate(90)"/><rect class="cls-1" x="268.56" y="134.28" width="22.38" height="22.38" transform="translate(425.23 -134.28) rotate(90)"/></g></g></svg>